<?xml version="1.0" encoding="UTF-8"?>
  <?xml-stylesheet type="text/css" href="../css/stylesheet.css"?>
<svg id="ampSVG" xmlns="http://www.w3.org/2000/svg" viewBox="0 0 598.02 800">
  <defs>
    <style>
      .cls-1 {
        fill: #fdf3dc;
      }

      .cls-2 {
        fill: #7d6b64;
      }

      .cls-3 {
        fill: #9f907c;
      }

      .cls-4 {
        fill: #cbcbcb;
      }

      .cls-5 {
        fill: #e0cd90;
      }

      .cls-6 {
        fill: #5b4c43;
      }

      .cls-7 {
        opacity: .2;
      }

      .cls-7, .cls-8 {
        fill: #040000;
        isolation: isolate;
      }

      .cls-8 {
        opacity: .1;
      }
    </style>
  </defs>
  <g>
    <g>
      <path class="cls-6" d="m598.01,55.69v688.59c0,30.7-25.1,55.69-55.69,55.69H55.69c-2.69,0-5.39-.22-8.08-.65-1.29-.22-2.58-.43-3.88-.75-1.29-.22-2.58-.54-3.88-.97-1.29-.43-2.58-.86-3.77-1.29-.97-.32-1.83-.65-2.8-1.08-1.4-.65-2.69-1.29-4.09-2.05-2.91-1.62-5.82-3.45-8.4-5.6-.22-.22-.43-.32-.65-.54-1.29-1.08-2.58-2.26-3.77-3.45-1.19-1.19-2.37-2.48-3.45-3.77-1.19-1.4-2.37-2.91-3.34-4.42-1.08-1.51-1.94-3.02-2.8-4.63-.75-1.29-1.4-2.69-2.05-4.09-.43-.86-.75-1.83-1.08-2.8-.97-2.48-1.72-5.06-2.26-7.65-.32-1.08-.54-2.26-.65-3.45-.22-.86-.32-1.83-.43-2.8-.21-1.83-.32-3.77-.32-5.71V55.69C0,25.1,25.1,0,55.69,0h486.63c4.42,0,8.73.54,12.93,1.62,20.25,4.85,36.3,20.9,41.15,41.15,1.08,4.2,1.62,8.51,1.62,12.92Z"/>
      <path class="cls-8" d="m598.01,728.44v15.83c0,30.7-25.1,55.69-55.69,55.69H55.69c-2.69,0-5.39-.22-8.08-.65-1.29-.22-2.58-.43-3.88-.75-1.29-.22-2.58-.54-3.88-.97-1.29-.43-2.58-.86-3.77-1.29-.97-.32-1.83-.65-2.8-1.08-1.4-.65-2.69-1.29-4.09-2.05-2.91-1.62-5.82-3.45-8.4-5.6-.22-.22-.43-.32-.65-.54-1.29-1.08-2.58-2.26-3.77-3.45-1.19-1.19-2.37-2.48-3.45-3.77-1.19-1.4-2.37-2.91-3.34-4.42-1.08-1.51-1.94-3.02-2.8-4.63-.75-1.29-1.4-2.69-2.05-4.09-.43-.86-.75-1.83-1.08-2.8-1.08-2.48-1.83-4.95-2.26-7.65-.32-1.08-.54-2.26-.65-3.45-.22-.86-.32-1.83-.43-2.8-.21-1.83-.32-3.77-.32-5.71v-15.83c0,30.7,25.1,55.69,55.69,55.69h486.63c30.59,0,55.69-24.99,55.69-55.69Z"/>
      <path class="cls-8" d="m299,619.75c-63.64,0-124.5-22.78-172.37-64.34-6.47,3.68-13.82,5.65-21.4,5.65-23.93,0-43.39-19.46-43.39-43.39,0-10.25,3.7-20.15,10.2-27.91-23.66-40.27-36.13-86.09-36.13-133.1s12.22-91.91,35.41-131.87c-6.11-7.62-9.48-17.09-9.48-27.05,0-23.93,19.46-43.39,43.39-43.39,6.96,0,13.8,1.69,19.92,4.86,48.09-42.4,109.49-65.65,173.86-65.65s126.44,23.49,174.65,66.34c6.43-3.62,13.72-5.55,21.22-5.55,23.93,0,43.39,19.46,43.39,43.39,0,10.55-3.89,20.68-10.72,28.52,22.64,39.61,34.56,84.51,34.56,130.41s-12.17,91.74-35.29,131.66c7.29,7.92,11.44,18.34,11.44,29.35,0,23.93-19.46,43.39-43.39,43.39-8.12,0-15.9-2.22-22.66-6.37-47.99,42.02-109.13,65.07-173.2,65.07Z"/>
    </g>
    <g>
      <path class="cls-2" d="m500.8,482.93c22.95-36.6,36.24-79.89,36.24-126.28s-12.95-88.59-35.38-124.9c7.8-5.59,12.89-14.72,12.89-25.02,0-16.97-13.8-30.77-30.77-30.77-8.02,0-15.33,3.09-20.82,8.13-42.69-40.57-100.42-65.47-163.96-65.47s-120.41,24.54-163,64.58c-5.36-4.52-12.27-7.24-19.8-7.24-16.97,0-30.77,13.8-30.77,30.77,0,9.7,4.52,18.36,11.55,24.01-22.81,36.53-36.01,79.68-36.01,125.92s13.51,90.44,36.84,127.24c-7.51,5.62-12.38,14.58-12.38,24.66,0,16.97,13.8,30.77,30.77,30.77,8.06,0,15.4-3.12,20.89-8.2,42.48,39.44,99.37,63.57,161.91,63.57s120.33-24.51,162.92-64.51c5.58,5.64,13.32,9.14,21.86,9.14,16.97,0,30.77-13.8,30.77-30.77,0-10.68-5.47-20.1-13.75-25.62Z"/>
      <g id="speakerBump">
        <path class="cls-5" d="m299,515.79c-87.75,0-159.13-71.39-159.13-159.13s71.39-159.13,159.13-159.13,159.13,71.39,159.13,159.13-71.39,159.13-159.13,159.13Z"/>
        <path class="cls-2" d="m299,423.73c-36.98,0-67.07-30.09-67.07-67.07s30.09-67.07,67.07-67.07,67.07,30.09,67.07,67.07-30.09,67.07-67.07,67.07Z"/>
        <path class="cls-3" d="m299,410.58c-29.73,0-53.92-24.19-53.92-53.92s24.19-53.92,53.92-53.92,53.92,24.19,53.92,53.92-24.19,53.92-53.92,53.92Z"/>
        <path class="cls-7" d="m458.6,357.12c0,4.63-.2,9.22-.59,13.74-6.98-81.61-75.63-145.87-159.01-145.87s-152.03,64.26-159.01,145.87c-.4-4.52-.59-9.11-.59-13.74,0-88,71.6-159.6,159.6-159.6,88.01,0,159.6,71.6,159.6,159.6Z"/>
      </g>
      <g>
        <path class="cls-4" d="m116.2,226.22c-10.75,0-19.49-8.74-19.49-19.49s8.74-19.49,19.49-19.49,19.49,8.74,19.49,19.49c0,10.75-8.74,19.49-19.49,19.49Z"/>
        <path class="cls-4" d="m483.78,226.22c-10.75,0-19.49-8.74-19.49-19.49s8.74-19.49,19.49-19.49,19.49,8.74,19.49,19.49-8.74,19.49-19.49,19.49Z"/>
        <path class="cls-4" d="m116.2,528.04c-10.75,0-19.49-8.74-19.49-19.49s8.74-19.49,19.49-19.49,19.49,8.74,19.49,19.49-8.74,19.49-19.49,19.49Z"/>
        <path class="cls-4" d="m483.78,528.04c-10.75,0-19.49-8.74-19.49-19.49s8.74-19.49,19.49-19.49,19.49,8.74,19.49,19.49-8.74,19.49-19.49,19.49Z"/>
      </g>
      <g>
        <path class="cls-1" d="m116.2,214.52c-4.3,0-7.8-3.5-7.8-7.8s3.5-7.8,7.8-7.8,7.8,3.5,7.8,7.8c0,4.3-3.5,7.8-7.8,7.8Z"/>
        <path class="cls-1" d="m483.78,214.52c-4.3,0-7.8-3.5-7.8-7.8s3.5-7.8,7.8-7.8,7.8,3.5,7.8,7.8c0,4.3-3.5,7.8-7.8,7.8Z"/>
        <path class="cls-1" d="m116.2,516.35c-4.3,0-7.8-3.5-7.8-7.8s3.5-7.8,7.8-7.8,7.8,3.5,7.8,7.8c0,4.3-3.5,7.8-7.8,7.8Z"/>
        <path class="cls-1" d="m483.78,516.35c-4.3,0-7.8-3.5-7.8-7.8s3.5-7.8,7.8-7.8,7.8,3.5,7.8,7.8c0,4.3-3.5,7.8-7.8,7.8Z"/>
      </g>
    </g>
  </g>
  <path class="cls-8" d="m542.32,800c22.97,0,42.82-14.1,51.3-34.08.47-1.11.69-2.34,1.09-3.49.8-2.28,1.67-4.54,2.17-6.95.22-1.08.18-2.24.34-3.35.37-2.58.8-5.16.8-7.84h0V55.71c0-7.66-1.57-14.97-4.4-21.63-2.24-5.27-5.46-9.97-9.13-14.27-3.28-3.85-6.89-7.41-11.09-10.25-.56-.38-1.22-.62-1.8-.98C563.06,3.24,553.08.02,542.32.02h-243.32v799.98h243.32Z"/>
</svg>