<?xml version="1.0" encoding="UTF-8"?>
  <?xml-stylesheet type="text/css" href="../css/stylesheet.css"?>
<svg id="ExpButtonObj" data-name="Layer 2" xmlns="http://www.w3.org/2000/svg" xmlns:xlink="http://www.w3.org/1999/xlink" viewBox="0 0 313.14 32.7">
  <defs>
    <style>
      .cls-1 {
        letter-spacing: -.02em;
      }

      .cls-2 {
        letter-spacing: -.04em;
      }

      .cls-3 {
        fill: #fff;
        font-family: Staatliches-Regular, Staatliches;
        font-size: 19.68px;
      }

      .cls-4 {
        fill: #f15a29;
      }

      .cls-5 {
        fill: #fbb040;
      }

      .cls-6 {
        fill: #c2b59b;
      }

      .cls-7 {
        fill: #fafafa;
      }

      .cls-8 {
        fill: #e0e0e0;
      }

      .cls-9 {
        fill: #726658;
      }

      .cls-10 {
        fill: #594a42;
      }

      .cls-11 {
        filter: url(#drop-shadow-2);
      }

      .cls-12 {
        filter: url(#drop-shadow-1);
      }

      .cls-13 {
        letter-spacing: -.04em;
      }
    </style>
    <filter id="drop-shadow-1" filterUnits="userSpaceOnUse">
      <feOffset dx="3" dy="3"/>
      <feGaussianBlur result="blur" stdDeviation="2"/>
      <feFlood flood-color="#231f20" flood-opacity=".8"/>
      <feComposite in2="blur" operator="in"/>
      <feComposite in="SourceGraphic"/>
    </filter>
    <filter id="drop-shadow-2" filterUnits="userSpaceOnUse">
      <feOffset dx="3" dy="3"/>
      <feGaussianBlur result="blur-2" stdDeviation="2"/>
      <feFlood flood-color="#231f20" flood-opacity=".8"/>
      <feComposite in2="blur-2" operator="in"/>
      <feComposite in="SourceGraphic"/>
    </filter>
  </defs>
  <g id="Layer_24" data-name="Layer 24">
        <g id="ExperimentalPlug" data-name="ExperimentalPlug" class="cls-11">
      <polyline class="cls-7" points="133.85 16.2 143.33 5.17 146.23 5.17 150.18 10.68 155.45 10.68 158.34 5.17 241.88 5.17 243.99 1.57 248.68 1.57 248.68 16.2"/>
      <polyline class="cls-8" points="133.85 15.94 143.33 26.97 146.23 26.97 150.18 21.45 155.45 21.45 158.34 26.97 241.88 26.97 243.99 30.57 248.68 30.57 248.68 15.94"/>
      <rect class="cls-4" x="248.68" y="4.71" width="64.46" height="21.76"/>
      <rect class="cls-5" x="248.68" y="6.49" width="64.46" height="3.66"/>
    </g>
    <g id="ExperimentalSocket" class="cls-12">
      <rect class="cls-9" x="0" y="0" width="114.5" height="32.41"/>
      <rect class="cls-6" x="114.5" y="3.6" width="6.93" height="24.94"/>
      <polygon class="cls-9" points="127.09 32.41 121.43 32.41 121.43 0 127.09 0 127.09 16.2 127.09 32.41"/>
      <rect class="cls-10" x=".03" y="29.26" width="114.5" height="3.44"/>
      <rect class="cls-10" x="121.43" y="29.26" width="5.66" height="3.44"/>
      <text class="cls-3" transform="translate(17.33 21.49) scale(.82 1)"><tspan class="cls-1" x="0" y="0">E</tspan><tspan x="7.85" y="0">xperimen</tspan><tspan class="cls-13" x="74.8" y="0">t</tspan><tspan x="81.96" y="0">a</tspan><tspan class="cls-2" x="90.36" y="0">l</tspan></text>
    </g>
  </g>
</svg>