<?xml version="1.0" encoding="UTF-8"?>
  <?xml-stylesheet type="text/css" href="../css/stylesheet.css"?>
<svg id="FunkButtonObj" data-name="Layer 2" xmlns="http://www.w3.org/2000/svg" xmlns:xlink="http://www.w3.org/1999/xlink" viewBox="0 0 313.14 32.7">
  <defs>
    <style>
      .cls-1 {
        fill: #fff;
        font-family: Staatliches-Regular, Staatliches;
        font-size: 19.68px;
      }

      .cls-2 {
        fill: #c2b59b;
      }

      .cls-3 {
        fill: #fafafa;
      }

      .cls-4 {
        fill: #e0e0e0;
      }

      .cls-5 {
        fill: #1c75bc;
      }

      .cls-6 {
        fill: #726658;
      }

      .cls-7 {
        fill: #594a42;
      }

      .cls-8 {
        fill: #2e3192;
      }

      .cls-9 {
        filter: url(#drop-shadow-2);
      }

      .cls-10 {
        filter: url(#drop-shadow-1);
      }

      .cls-11 {
        letter-spacing: 0em;
      }
    </style>
    <filter id="drop-shadow-1" filterUnits="userSpaceOnUse">
      <feOffset dx="3" dy="3"/>
      <feGaussianBlur result="blur" stdDeviation="2"/>
      <feFlood flood-color="#231f20" flood-opacity=".8"/>
      <feComposite in2="blur" operator="in"/>
      <feComposite in="SourceGraphic"/>
    </filter>
    <filter id="drop-shadow-2" filterUnits="userSpaceOnUse">
      <feOffset dx="3" dy="3"/>
      <feGaussianBlur result="blur-2" stdDeviation="2"/>
      <feFlood flood-color="#231f20" flood-opacity=".8"/>
      <feComposite in2="blur-2" operator="in"/>
      <feComposite in="SourceGraphic"/>
    </filter>
  </defs>
  <g id="Layer_24" data-name="Layer 24">
        <g id="FunkRockPlug" class="cls-9">
      <polyline class="cls-3" points="133.85 14.63 143.33 3.6 146.23 3.6 150.18 9.11 155.45 9.11 158.34 3.6 241.88 3.6 243.99 0 248.68 0 248.68 14.63"/>
      <polyline class="cls-4" points="133.85 14.37 143.33 25.4 146.23 25.4 150.18 19.88 155.45 19.88 158.34 25.4 241.88 25.4 243.99 29 248.68 29 248.68 14.37"/>
      <rect class="cls-8" x="248.68" y="3.14" width="64.46" height="21.76"/>
      <rect class="cls-5" x="248.68" y="4.92" width="64.46" height="3.66"/>
    </g>
    <g id="FunkRockSocket" class="cls-10">
      <rect class="cls-6" x="0" y="0" width="114.5" height="32.41"/>
      <rect class="cls-2" x="114.5" y="3.6" width="6.93" height="24.94"/>
      <polygon class="cls-6" points="127.09 32.41 121.43 32.41 121.43 0 127.09 0 127.09 16.2 127.09 32.41"/>
      <rect class="cls-7" x=".03" y="29.26" width="114.5" height="3.44"/>
      <rect class="cls-7" x="121.43" y="29.26" width="5.66" height="3.44"/>
      <text class="cls-1" transform="translate(26.46 21.49) scale(.82 1)"><tspan x="0" y="0">Funk </tspan><tspan class="cls-11" x="38.61" y="0">R</tspan><tspan x="48" y="0">ock</tspan></text>
    </g>

  </g>
</svg>