<?xml version="1.0" encoding="UTF-8"?>
  <?xml-stylesheet type="text/css" href="../css/stylesheet.css"?>
<svg id="AniSVG" data-name="Layer 2" xmlns="http://www.w3.org/2000/svg" xmlns:xlink="http://www.w3.org/1999/xlink" viewBox="0 0 772.57 832.07">
  <defs>
    <style>
      .cls-1 {
        filter: url(#drop-shadow-9);
      }

      .cls-1, .cls-2, .cls-3, .cls-4, .cls-5, .cls-6, .cls-7, .cls-8, .cls-9, .cls-10, .cls-11, .cls-12, .cls-13, .cls-14, .cls-15, .cls-16, .cls-17, .cls-18, .cls-19, .cls-20, .cls-21, .cls-22, .cls-23, .cls-24, .cls-25, .cls-26, .cls-27, .cls-28, .cls-29, .cls-30, .cls-31, .cls-32, .cls-33, .cls-34, .cls-35, .cls-36 {
        stroke-linecap: round;
      }

      .cls-1, .cls-2, .cls-4, .cls-5, .cls-6, .cls-8, .cls-37, .cls-38, .cls-12, .cls-13, .cls-14, .cls-15, .cls-21, .cls-22, .cls-23, .cls-25, .cls-26, .cls-28, .cls-29, .cls-39, .cls-40, .cls-41, .cls-42, .cls-43, .cls-44, .cls-45, .cls-31, .cls-32, .cls-33, .cls-46, .cls-36 {
        stroke: #231f20;
      }

      .cls-1, .cls-2, .cls-32 {
        fill: #503e61;
      }

      .cls-1, .cls-37, .cls-38, .cls-47, .cls-13, .cls-14, .cls-15, .cls-16, .cls-17, .cls-18, .cls-19, .cls-20, .cls-21, .cls-22, .cls-23, .cls-24, .cls-25, .cls-27, .cls-29, .cls-48, .cls-39, .cls-40, .cls-41, .cls-42, .cls-43, .cls-44, .cls-45, .cls-49, .cls-50, .cls-30, .cls-51, .cls-33, .cls-34 {
        stroke-miterlimit: 10;
      }

      .cls-52, .cls-9, .cls-10, .cls-16, .cls-17, .cls-18, .cls-27, .cls-30, .cls-31, .cls-51, .cls-34 {
        fill: none;
      }

      .cls-2, .cls-3, .cls-4, .cls-5, .cls-6, .cls-7, .cls-8, .cls-9, .cls-10, .cls-11, .cls-12, .cls-26, .cls-28, .cls-31, .cls-53, .cls-32, .cls-46, .cls-35, .cls-36 {
        stroke-linejoin: round;
      }

      .cls-3, .cls-4, .cls-54, .cls-11, .cls-12, .cls-19, .cls-22, .cls-26, .cls-42, .cls-45, .cls-53, .cls-46 {
        fill: #231f20;
      }

      .cls-3, .cls-7, .cls-10, .cls-19, .cls-20, .cls-30, .cls-35 {
        stroke: #fff;
      }

      .cls-5 {
        fill: #2e3192;
      }

      .cls-6 {
        fill: #7f3f98;
      }

      .cls-7, .cls-55, .cls-24, .cls-28, .cls-40, .cls-35 {
        fill: #fff;
      }

      .cls-8, .cls-38, .cls-56, .cls-14, .cls-15, .cls-25, .cls-39 {
        fill: #feecbd;
      }

      .cls-9, .cls-18, .cls-27, .cls-48, .cls-51, .cls-34 {
        stroke: #fee8aa;
      }

      .cls-37 {
        filter: url(#drop-shadow-4);
      }

      .cls-37, .cls-13, .cls-36 {
        fill: #87412a;
      }

      .cls-38 {
        filter: url(#drop-shadow-3);
      }

      .cls-47, .cls-11, .cls-12 {
        stroke-width: 2px;
      }

      .cls-47, .cls-45, .cls-49, .cls-50, .cls-53 {
        stroke-linecap: square;
      }

      .cls-47, .cls-50 {
        fill: #e4e5e6;
        stroke: #d1d3d4;
      }

      .cls-57 {
        clip-path: url(#clippath);
      }

      .cls-58, .cls-23 {
        fill: #333132;
      }

      .cls-59, .cls-20, .cls-21, .cls-49 {
        fill: #414042;
      }

      .cls-60 {
        fill: #393839;
      }

      .cls-11, .cls-24 {
        stroke: #f1f2f2;
      }

      .cls-13 {
        filter: url(#drop-shadow-2);
      }

      .cls-14 {
        filter: url(#drop-shadow-6);
      }

      .cls-15 {
        filter: url(#drop-shadow-1);
      }

      .cls-16 {
        stroke: #bcbec0;
      }

      .cls-17 {
        stroke: #feecbd;
      }

      .cls-61 {
        clip-path: url(#clippath-1);
      }

      .cls-26, .cls-27, .cls-28, .cls-31 {
        stroke-width: .5px;
      }

      .cls-62 {
        filter: url(#drop-shadow-7);
      }

      .cls-29 {
        stroke-width: 5px;
      }

      .cls-29, .cls-33, .cls-63 {
        fill: #808285;
      }

      .cls-48 {
        fill: #745421;
      }

      .cls-41 {
        fill: #bbb4b3;
      }

      .cls-43 {
        fill: #4f4f51;
      }

      .cls-44 {
        fill: #4c3794;
      }

      .cls-45, .cls-49, .cls-50 {
        stroke-width: 3px;
      }

      .cls-49 {
        stroke: #e6e7e8;
      }

      .cls-30 {
        stroke-width: 4px;
      }

      .cls-53 {
        stroke: #414042;
      }

      .cls-32 {
        filter: url(#drop-shadow-8);
      }

      .cls-33 {
        stroke-width: 6px;
      }

      .cls-64 {
        filter: url(#drop-shadow-11);
      }

      .cls-65 {
        filter: url(#drop-shadow-10);
      }

      .cls-34, .cls-35 {
        stroke-width: .75px;
      }

      .cls-63 {
        opacity: .5;
      }

      .cls-36 {
        filter: url(#drop-shadow-5);
      }
    </style>
    <filter id="drop-shadow-1" filterUnits="userSpaceOnUse">
      <feOffset dx="3" dy="3"/>
      <feGaussianBlur result="blur" stdDeviation="2"/>
      <feFlood flood-color="#231f20" flood-opacity=".5"/>
      <feComposite in2="blur" operator="in"/>
      <feComposite in="SourceGraphic"/>
    </filter>
    <filter id="drop-shadow-2" filterUnits="userSpaceOnUse">
      <feOffset dx="3" dy="3"/>
      <feGaussianBlur result="blur-2" stdDeviation="2"/>
      <feFlood flood-color="#231f20" flood-opacity=".5"/>
      <feComposite in2="blur-2" operator="in"/>
      <feComposite in="SourceGraphic"/>
    </filter>
    <filter id="drop-shadow-3" filterUnits="userSpaceOnUse">
      <feOffset dx="3" dy="3"/>
      <feGaussianBlur result="blur-3" stdDeviation="2"/>
      <feFlood flood-color="#231f20" flood-opacity=".5"/>
      <feComposite in2="blur-3" operator="in"/>
      <feComposite in="SourceGraphic"/>
    </filter>
    <filter id="drop-shadow-4" filterUnits="userSpaceOnUse">
      <feOffset dx="3" dy="3"/>
      <feGaussianBlur result="blur-4" stdDeviation="2"/>
      <feFlood flood-color="#231f20" flood-opacity=".5"/>
      <feComposite in2="blur-4" operator="in"/>
      <feComposite in="SourceGraphic"/>
    </filter>
    <filter id="drop-shadow-5" filterUnits="userSpaceOnUse">
      <feOffset dx="3" dy="3"/>
      <feGaussianBlur result="blur-5" stdDeviation="2"/>
      <feFlood flood-color="#231f20" flood-opacity=".5"/>
      <feComposite in2="blur-5" operator="in"/>
      <feComposite in="SourceGraphic"/>
    </filter>
    <filter id="drop-shadow-6" filterUnits="userSpaceOnUse">
      <feOffset dx="3" dy="3"/>
      <feGaussianBlur result="blur-6" stdDeviation="2"/>
      <feFlood flood-color="#231f20" flood-opacity=".5"/>
      <feComposite in2="blur-6" operator="in"/>
      <feComposite in="SourceGraphic"/>
    </filter>
    <filter id="drop-shadow-7" filterUnits="userSpaceOnUse">
      <feOffset dx="3" dy="3"/>
      <feGaussianBlur result="blur-7" stdDeviation="2"/>
      <feFlood flood-color="#231f20" flood-opacity=".5"/>
      <feComposite in2="blur-7" operator="in"/>
      <feComposite in="SourceGraphic"/>
    </filter>
    <clipPath id="clippath">
      <polyline id="smallClippingPath" class="cls-52" points="265.7 197.66 263.04 197.68 241.7 197.59 240.19 207.04 244.03 209.51 263.12 207.72 263.06 197.79 264.66 194.71"/>
    </clipPath>
    <clipPath id="clippath-1">
      <polyline id="largeClippingPath" class="cls-52" points="272.89 197.88 321.27 197.89 318.51 204.98 282.44 212.19 275.07 208.57 275.15 197.91 273.68 194.2"/>
    </clipPath>
    <filter id="drop-shadow-8" filterUnits="userSpaceOnUse">
      <feOffset dx="3" dy="3"/>
      <feGaussianBlur result="blur-8" stdDeviation="2"/>
      <feFlood flood-color="#231f20" flood-opacity=".5"/>
      <feComposite in2="blur-8" operator="in"/>
      <feComposite in="SourceGraphic"/>
    </filter>
    <filter id="drop-shadow-9" filterUnits="userSpaceOnUse">
      <feOffset dx="3" dy="3"/>
      <feGaussianBlur result="blur-9" stdDeviation="2"/>
      <feFlood flood-color="#231f20" flood-opacity=".5"/>
      <feComposite in2="blur-9" operator="in"/>
      <feComposite in="SourceGraphic"/>
    </filter>
    <filter id="drop-shadow-10" filterUnits="userSpaceOnUse">
      <feOffset dx="3" dy="3"/>
      <feGaussianBlur result="blur-10" stdDeviation="2"/>
      <feFlood flood-color="#231f20" flood-opacity=".5"/>
      <feComposite in2="blur-10" operator="in"/>
      <feComposite in="SourceGraphic"/>
    </filter>
    <filter id="drop-shadow-11" filterUnits="userSpaceOnUse">
      <feOffset dx="3" dy="3"/>
      <feGaussianBlur result="blur-11" stdDeviation="2"/>
      <feFlood flood-color="#231f20" flood-opacity=".5"/>
      <feComposite in2="blur-11" operator="in"/>
      <feComposite in="SourceGraphic"/>
    </filter>
  </defs>
  <g id="Ani">
    <g id="tail">
      <polygon class="cls-15" points="434.77 453.44 447.71 478.11 453.33 586.49 430.95 558.27 442.14 572.38 442.14 632.8 422.41 611.22 426.22 723.82 407.8 704.88 405.55 800.11 230.49 802.74 250.79 790.11 67.39 794.32 98.96 774.85 32.13 772.22 63.7 751.97 3.2 746.97 258.9 723.82 347.77 713.3 355.34 634.37 358.87 664.89 362.8 628.09 370.45 577.55 381.08 601.75 366.24 519.67 378.86 530.72 355.34 471.81 434.77 453.44"/>
    </g>
    <g id="Body">
      <polyline class="cls-13" points="349.91 273.15 342.17 295.67 382.57 403.28 377.43 390.97 369.95 431.49 382.57 462.16 424.62 471.81 437.98 471.81 439.96 468.1 424.13 405.76 425.12 417.63 422.15 378.3 422.4 348.36 417.2 297.64 393.98 253.86 359.59 256.08"/>
      <g id="shirtText">
        <polyline class="cls-17" points="365.27 332.3 360.59 324.17 359.14 324.84 359.14 328.24 361.26 334.42 367.38 343.66 370.28 355.46 369.5 356.8 364.71 348.89 362.93 341.99"/>
        <polyline class="cls-17" points="367.49 322.39 372.95 344.1 377.85 358.69"/>
        <line class="cls-17" x1="377.85" y1="340.54" x2="372.95" y2="344.1"/>
        <polyline class="cls-17" points="370.95 316.82 377.18 340.54 384.09 357.91"/>
        <polyline class="cls-17" points="375.4 322.39 380.36 320.33 385.31 318.27"/>
        <line class="cls-17" x1="387.87" y1="355.24" x2="380.36" y2="320.33"/>
        <line class="cls-17" x1="385.31" y1="357.24" x2="393.11" y2="352.23"/>
        <polyline class="cls-17" points="396.89 355.24 389.99 319.38 390.66 316.82 394.44 319.72 396.22 324.84 395.11 328.29 392.66 329.41 402.01 355.24"/>
        <polyline class="cls-17" points="394.44 315.26 400.32 314.24 404.69 313.48"/>
        <polyline class="cls-17" points="409.81 357.24 404.13 340.48 400.32 314.24"/>
        <polyline class="cls-17" points="377.52 372.28 375.4 365.82 372.28 362.83 371.39 365.26 374.45 373.84 381.3 388.2 383.08 397.22 380.97 397.22 378.7 394.02"/>
        <polyline class="cls-17" points="389.21 397.22 384.09 383.97 380.54 370.71 378.63 363.59 379.74 361.59 383.08 364.7 383.08 369.6 380.54 370.71"/>
        <polyline class="cls-17" points="393.11 396.66 390.35 382.46 387.87 360.58 388.46 360.58 394.06 379.4 390.35 382.46"/>
        <line class="cls-17" x1="394.06" y1="379.4" x2="399.66" y2="398.09"/>
        <polyline class="cls-17" points="400.32 363.92 396.86 358.69 395.66 359.13 398.42 382.24 402.71 394.16 404.02 394.16 405.62 388.75"/>
        <polyline class="cls-17" points="410.34 360.58 403.22 361.09 406.2 378.62 410.34 394.89 415.5 394.6"/>
        <line class="cls-17" x1="410.63" y1="368.14" x2="405.07" y2="370.61"/>
      </g>
      <g id="fretArm">
        <g id="fretUpper">
          <g id="Layer_18" data-name="Layer 18">
            <polygon class="cls-38" points="442.15 310.41 460.94 375.09 479.09 421.84 486.74 456.04 462.77 453.44 436.69 378.62 421.36 313.48 428.81 304.83 442.15 310.41"/>
          </g>
          <polyline class="cls-37" points="384.63 255.55 411.76 246.88 433.99 271.85 434.42 286.83 435.27 280.78 444.58 291.94 443.21 300.61 446.76 316.45 432.43 311.09 417.38 327.2 417.87 314.42 421.18 319.45 408.69 299.22 418.24 308.14 404.36 295.6 402.92 276.75 403.71 287.05 395.55 270.01 393.38 269.12"/>
        </g>
        <polyline id="fretFore" class="cls-39" points="477.39 454.82 463.31 454.2 423.42 409.2 376.26 344.3 399.52 336.58 435.78 387.11 472.15 423.48"/>
      </g>
      <g id="strumArm">
        <polygon class="cls-8" points="200.8 365.74 299.42 318.21 301.1 297.89 284.19 296.49 179.12 337.03 78.45 333.18 61.42 359.04 200.8 365.74"/>
        <polygon class="cls-36" points="364.18 256.32 330.56 252.03 317.37 269.38 309.68 271.97 325.23 267.61 308.55 271.88 301.05 281.21 305.95 275.12 295.78 278.35 284.19 296.49 301.1 297.89 299.42 318.21 334.59 295.29 335.91 285.77 345.88 280.57 366.1 282.3 364.18 256.32"/>
      </g>
      <g id="Neck">
        <polygon class="cls-14" points="389.58 270.78 384.41 258.29 361.78 249.31 339.44 237.41 313.69 219.37 294.76 228.63 307.25 242.78 314.66 245.22 338.47 253.7 337.83 253.8 335.56 253.08 339.43 258.97 356.68 265.09 367.19 270.93 365.79 270.56 361.4 268.41 364.44 272.29 369.31 274.3 374.87 274.37 381.51 272.74 388.63 271.25 389.58 270.78"/>
      </g>
      <g id="Head">
        <g id="HeadGroup" class="cls-62">
          <polygon id="headBackplate" class="cls-56" points="308.43 151.69 385.8 174.55 363.99 187.56 350.62 206.54 304.01 171.93 308.43 151.69"/>
          <g id="exposedEar">
            <polyline class="cls-39" points="310.41 150.24 457.95 153.13 357.78 199.52 445.44 158.31 351.26 163.82 342.44 169.93 333.15 176.36"/>
            <polygon class="cls-41" points="342.96 170.07 353.77 168.73 348.53 175.14 356.51 170.03 348.15 194.09 355.42 185.79 340.97 209.74 357.78 199.52 443.68 158.88 351.26 163.82 342.96 170.07"/>
          </g>
          <g id="coveredEar">
            <polyline class="cls-39" points="263.8 171.81 256.17 165.23 248.92 158.98 170.58 151.92 242.9 194.57 160.25 146.53 283.16 146.07"/>
            <polygon class="cls-41" points="255.73 165.36 246.75 163.85 251.01 170.34 244.44 165.1 251.02 189.3 245.1 180.88 267.32 207.58 242.9 194.57 172.04 152.52 248.92 158.98 255.73 165.36"/>
          </g>
          <g id="headBaseShape">
            <polyline class="cls-39" points="341.64 199.52 383.76 199.59 360.77 209.76 381.26 205.37 347.26 219.41 370.8 214.74 334.6 234.86 358.77 228.67 306.42 246.52 287.5 245.43 229.45 251.93 202.82 226.36 199.82 220.22 210.62 207.5 232.27 210.14 238.71 209.62 263.12 207.67 239.74 209.19 241.85 196.49 239.27 177.84 244.6 162.63 257.23 149.31 282.29 145.88 308.2 149.47"/>
            <polygon class="cls-39" points="241.26 195.24 223.64 194.59 237.26 202.6 226.32 201.41 237.92 208.08 229.67 206.69 235.71 209.81 239.33 209.24 241.42 196.5 241.26 195.24"/>
          </g>
          <g id="Nose">
            <polygon class="cls-5" points="211.45 221.34 208.03 215.04 212.57 213.17 221.12 212.03 226.48 216.43 211.45 221.34"/>
            <polyline class="cls-55" points="213.34 213.74 224.51 215.76 220.93 212.69"/>
          </g>
          <g id="smallEyeClip">
            <g class="cls-57">
              <g id="smallEye">
                <polygon class="cls-26" points="254.22 204.72 252.53 197.44 267.36 200.94 254.22 204.72"/>
                <polyline class="cls-28" points="252.53 197.44 268 197.61 267.36 200.94"/>
              </g>
            </g>
          </g>
          <g id="largeEyeClip">
            <g class="cls-61">
              <g id="largeEye">
                <polygon class="cls-26" points="298.24 205.15 295.31 197.86 320.73 201.46 298.24 205.15"/>
                <polyline class="cls-28" points="295.31 197.86 321.81 198.13 320.73 201.46"/>
              </g>
            </g>
          </g>
          <polyline id="largeEyeHole" class="cls-31" points="272.89 197.88 321.27 197.89 318.51 204.98 282.44 212.19 275.07 208.57 275.15 197.91 273.68 194.2"/>
          <polyline id="smallEyeHole" class="cls-31" points="265.7 197.52 263.04 197.54 241.7 197.46 240.19 206.9 244.03 209.37 263.12 207.58 263.06 197.65 264.66 194.57"/>
          <g id="Hair">
            <path id="Hair-2" data-name="Hair" class="cls-44" d="m305.55,155.2l-81.82,25.11-46.06,16.52,31.05-21.84,32.06-15.87c-.21-.53-72.44,23.52-72.44,23.52l-53.1,20.47-47.87,21.66,39.19-32.29,52.19-33.2,44.04-24.2-58.56,15.97-54.22,21.28s-30.9,14.45-30.07,14.19,27.74-25.01,27.74-25.01l26.53-17.56,35.99-21.84-61.94,14.68-30.36,9.77-17.07,5.98,16.39-10.73,36.47-17.67,72.82-27.85s-63.42,17.26-64.42,17.49-52.24,20.42-52.24,20.42l38.4-29.87,59.26-22.31-39.39,2.44-46.17,11.36s41.32-24.33,42.18-25.44,39.75-13.42,39.75-13.42l44.71-7.17,33.63,1.92-54.59-7-33.12,1.18,35.21-9.56,51.37-2.58,57.32,11.53-27.17-20.61-31.41-18.43,38.86,8.73,43.4,23.38,17.99,15.7-12.22-26.55S284.98-.07,286.38.51s31.35,22.64,31.61,23.76,20.18,37.89,20.18,37.89l7.23,22.55s3.51-27.72,3.24-28.84-2.52-18.83-2.52-18.83c0,0,10.46,22.25,10.73,23.12s-1.32,29.68-1.32,29.68l-12.61,32.97,20.26-24.2,12.81-26.91-7.62,26.7-23.25,30.79,26.1-9.98,24.11-11.45-19.58,17s-35.17,18.49-33.72,17.94,22.69-.39,22.69-.39l30.75-3.6s-27.34,6.7-27.95,6.69-36.7,7.17-36.7,7.17l-21.65,6.79-25.53,7.74,21.89-11.88Z"/>
            <line class="cls-30" x1="120.56" y1="192.36" x2="195.59" y2="148.34"/>
            <line class="cls-30" x1="108.93" y1="153.54" x2="150.24" y2="131.56"/>
            <line class="cls-30" x1="102" y1="125.54" x2="144.44" y2="110.76"/>
            <line class="cls-30" x1="222.09" y1="175.31" x2="244.44" y2="165.1"/>
            <line class="cls-30" x1="119.97" y1="99.12" x2="144.39" y2="92.3"/>
          </g>
        </g>
        <polygon class="cls-56" points="263.55 197.24 274.8 197.63 273.16 193.55 265.19 194.11 263.55 197.24"/>
      </g>
    </g>
    <g id="mobileThigh">
      <polyline class="cls-32" points="142.17 422.29 329.57 441.27 303.7 477.71 282.56 471.03 157.53 477.71"/>
    </g>
    <g id="immobleLeg">
      <polygon id="leftLeg" class="cls-1" points="290.03 707.98 338.99 719.88 361.41 522.19 360.27 495.88 350.79 479.78 347.69 474.51 333.27 450.04 351.64 479.52 414.2 480.51 432.94 472.62 435.78 462.81 311.02 396.66 274.9 431.04 290.03 707.98"/>
      <g id="leftFoot">
        <polygon class="cls-25" points="298.54 698.61 274.9 692.42 250.79 722.79 267.3 807.38 279.38 823.01 302.38 825.36 298.54 698.61"/>
        <polygon class="cls-25" points="347.77 680.63 312.1 672.38 298.54 698.61 302.38 825.36 315.94 831.56 347.77 826.54 362.8 723.37 347.77 680.63"/>
        <polygon class="cls-25" points="373.42 670.02 349.26 684.86 362.8 723.37 347.77 826.54 366.34 828.61 381.08 827.13 399.95 758.89 405.55 714.24 390.51 689.48 373.42 670.02"/>
        <polygon class="cls-25" points="411.44 681.81 390.51 689.48 405.55 714.24 399.95 758.89 381.08 827.13 400.83 828.61 418.22 823.3 438.85 721.61 425.59 698.61 411.44 681.81"/>
      </g>
    </g>
    <g id="Guitar">
      <g id="GuitarBody" class="cls-65">
        <polygon class="cls-12" points="183.28 391.68 105.06 391.68 105.06 302.67 210.79 296.92 183.28 391.68"/>
        <g>
          <g>
            <path class="cls-21" d="m143.86,271.74c-2.7-1.12-8.54-2.46-11.47-2.34-3.15.13-9.38,1.94-12.09,3.55s-7.23,6.43-9.06,9.06c-2.28,3.27-5.17,10.79-6.65,14.5-2.95,7.41-8.17,22.51-10.27,30.2s-5.17,23.98-6.65,32.02c-1.75,9.56-4.53,28.4-5.81,38.43-1.08,8.42-3.95,25.39-3.02,33.83.38,3.47,2.42,10.31,4.23,13.29,1,1.64,3.62,4.82,5.44,5.44,3.18,1.07,10.11-.75,13.29-1.81,2.95-.98,8.39-4.17,10.87-6.04,5.65-4.24,14.3-13.58,20.31-17.28,2.08-1.28,6.63-3.46,9.06-3.62,1.24-.08,3.74.61,4.83,1.21,2.72,1.48,6.53,6.67,9.06,8.46,3.2,2.26,10.06,6.42,13.89,7.25,2.66.57,8.39.51,10.87-.6,1.95-.87,5.04-4.15,6.04-6.04,1.15-2.17,2.01-7.22,1.81-9.67-.14-1.76-1.08-5.49-2.42-6.65-2.34-2.01-9.15-1.47-12.08-2.42-1.74-.56-5.2-1.9-6.65-3.02-1.53-1.19-3.85-4.37-4.83-6.04-1.41-2.39-3.77-7.53-4.23-10.27-.42-2.54-.34-7.88.6-10.27.87-2.19,6.04-7.25,6.04-7.25l6.04-9.35-15.1,2.71-1.21,4.23-3.57,2-3.59-2.4-.6,3.19-2.6,3-1.4-.4-1-1.8v-54.11l1.6-3.19,2.8-2.4,1,.4,1.2-.6,2.4-3.79,2.4-1.8,2.2.2,2.8.8,1,4.59,29.55-6.59-2.6-5.79.6-6.79s1.96-6.42,3-8.39c.71-1.36,2.63-3.8,3.59-4.99,1.4-1.73,4.47-4.97,5.99-6.59,1.42-1.51,4.05-4.65,5.79-6.04.07-.05.14-.11.2-.16,1.54-1.15,4.99-2.6,6.79-3.59s10.55-5.9,11.98-6.59c.99-.48,7.39-3.79,7.99-3.79s4.39-1.2,4.99-1.8,2.8-4.39,3-4.99-.16-4.44-1-5.59c-.62-.85-2.58-1.91-3.59-2.2-1.59-.45-4.96-.22-6.59,0-2.05.28-6.04,1.49-7.99,2.2s-5.9,2.58-7.79,3.59c-1.09.58-8.59,5.19-9.58,5.79s-4.15,2.23-5.39,3.19c-1.09.85-1.6,1.6-4.19,3.59s-5.69,5.54-7.59,7.39c-1.47,1.43-4.59,4.11-6.19,5.39-1.11.89-3.37,2.66-4.59,3.39-1,.6-3.12,1.55-4.19,2-.69.28-2.12.69-2.8,1s-1.8,1-2.6,1.2-4.91-.34-6.39-1-3.81-2.97-5.19-3.79c-2.09-1.25-6.62-3.08-8.79-4.19-.49-.25-1.41-.85-1.91-1.06Z"/>
            <path class="cls-63" d="m94.02,432.39l.72-5.26,1.43,5.74.96-7.41,1.2,9.56.72-11,2.39,7.65s-.24-3.83,0-4.54,2.15,2.39,2.15,2.39l-.24-10.52,1.43,8.13.24-11.48s1.2,8.61,1.43,9.33.72-11.48.72-11.48c0,0,2.15,9.09,2.39,10.28s.48-8.13,1.2-7.17,2.39,5.98,2.39,5.98l1.2-6.93,1.43,4.54,1.91-6.22,2.39,3.59,1.43-7.41,2.15,7.65s-.48-14.82.48-14.35,5.5,8.61,5.5,8.61l.48-5.74,1.43,6.69.72-3.83,1.2,3.11,1.2-7.89,2.63,6.46.48-4.78,1.91,3.83.96-5.02,1.43,3.83,1.67-5.98,2.39,5.74.96-5.5,1.91,7.41.48-4.78,2.39,9.09s-1.67-14.35.24-8.61,5.02,13.15,5.02,13.15c0,0-.24-6.69.24-5.5s4.54,11,4.54,11v-5.74l1.91,4.78.24-5.98-7.41-17.69,1.67,2.15-3.11-12.43,1.2-8.61,4.06-9.8.16-2.64-4.24.8s-1.28,4.24-1.36,4.48-2.68,1.66-3.68,1.6-3.52-1.84-3.52-1.84c0,0,.36,3.06-.11,3.92-.43.76-2.05,1.84-2.93,1.92-.62.06-1.85-.48-2.32-.88-.37-.31-.96-1.68-.96-1.68l.86-53.51s-.14-2.84.34-3.46c.77-1,2.21-3.39,3.44-3.68.18-.04.53.23.72.24.45.03,1.26-.48,1.62-.75,1.27-.94,2.23-3.41,3.54-4.29.36-.24,1.94-.53,2.37-.53s1.18.01,1.58.13c.66.19,2.17.23,2.64.72.74.77.96,4.16.96,4.16l21.84-4.72-.08-10.56.56,3.92,1.6-11.12.24,4.8,3.52-8.24-.08,3.44,12.16-23.36.88-2.72-3.6,3.36-.32-2.24-6.8,10.72v-4l-5.6,6.72-1.12-.32-6.32,8.88-.64-3.84s-4.56,4.48-4.72,4.72-.8-2.16-.8-2.16l-4,4.64.24-2.88-2.24,2.8-.4-4.16-1.28,1.76-.64-2.48-1.36,1.76-4.24,2.96-.24-2.56-1.52,1.52-.64-2.72-2.56,2.48-.24-3.2-1.6,2.16-1.12-3.44-1.52,2.16-1.04-2.56-.72,1.6-.72-2.48-1.68,1.84.24-2.8-3.52,3.76-.16-5.12-.96,2.64-2.16-3.68-.72,3.12-3.04-3.76-1.68,2.72-1.92-3.44s-1.04,2.48-1.04,2.8-1.44-4.8-1.44-4.8l-1.84,7.04-1.6-5.2-2.08,4.24-.8-3.36-2.48,4-.4-1.6s-2.72,4.96-2.88,5.36-3.84,11.2-3.84,11.2l1.92-10.08-5.52,18.48-.24-6.64-5.36,19.36-.64-1.84-3.2,15.12-4.88,30.96-.4-14.64-5.2,25.44-.48,16.56,1.84-2.64-2,22.72,1.76-2.32-1.36,14.32,3.12-5.6v10.32l1.92-4.96.64,8,.56-5.44,1.06,3.53Z"/>
            <line class="cls-16" x1="93.18" y1="412.48" x2="98.16" y2="383.17"/>
            <line class="cls-16" x1="97.13" y1="415.74" x2="100.73" y2="390.37"/>
            <path class="cls-16" d="m121.13,404.25c.34-1.03,4.46-19.2,4.46-19.2"/>
            <line class="cls-16" x1="113.76" y1="396.54" x2="115.99" y2="384.19"/>
            <line class="cls-16" x1="109.13" y1="395.68" x2="112.56" y2="378.02"/>
            <line class="cls-16" x1="132.27" y1="402.02" x2="139.13" y2="373.39"/>
            <line class="cls-16" x1="88.9" y1="390.88" x2="93.53" y2="365.68"/>
            <line class="cls-16" x1="108.79" y1="320.59" x2="116.16" y2="291.44"/>
            <line class="cls-16" x1="119.76" y1="319.73" x2="123.19" y2="302.93"/>
            <line class="cls-16" x1="132.1" y1="318.7" x2="140.67" y2="289.21"/>
            <line class="cls-16" x1="126.62" y1="311.16" x2="130.73" y2="292.64"/>
            <line class="cls-16" x1="120.44" y1="296.24" x2="117.01" y2="305.67"/>
            <line class="cls-16" x1="142.9" y1="314.42" x2="148.56" y2="292.99"/>
            <line class="cls-16" x1="152.33" y1="308.42" x2="153.88" y2="298.47"/>
            <line class="cls-16" x1="162.28" y1="311.84" x2="166.56" y2="296.07"/>
            <line class="cls-16" x1="174.45" y1="309.44" x2="181.65" y2="287.84"/>
            <line class="cls-16" x1="144.1" y1="398.25" x2="148.73" y2="377.85"/>
            <line class="cls-16" x1="137.42" y1="397.74" x2="140.16" y2="387.11"/>
            <line class="cls-16" x1="128.33" y1="393.45" x2="130.73" y2="381.79"/>
            <line class="cls-16" x1="118.04" y1="398.42" x2="119.42" y2="392.77"/>
            <line class="cls-16" x1="104.67" y1="392.25" x2="106.04" y2="383.85"/>
            <line class="cls-16" x1="90.61" y1="397.74" x2="92.67" y2="387.45"/>
            <line class="cls-16" x1="114.27" y1="321.62" x2="115.81" y2="314.59"/>
            <line class="cls-16" x1="129.36" y1="316.65" x2="132.44" y2="301.73"/>
            <line class="cls-16" x1="138.96" y1="313.22" x2="141.36" y2="301.39"/>
            <line class="cls-16" x1="157.48" y1="304.99" x2="159.02" y2="295.9"/>
            <line class="cls-16" x1="168.79" y1="310.3" x2="170.16" y2="300.19"/>
          </g>
          <path class="cls-22" d="m139.8,270.35s6.67,1.54,8.86,2.18c2.33.67,7.05,1.94,9.19,3.06s7.54,5.66,7.54,5.66l-5.65-.47s-2.52-2.81-3.54-3.54c-2.03-1.44-6.65-3.41-8.96-4.36-1.82-.75-7.45-2.53-7.45-2.53Z"/>
          <path class="cls-46" d="m236.41,243.38s13.41,3.09,16.89,5.9c2.14,1.73,5.51,6.66,5.74,9.4.22,2.57-2.38,7.43-3.82,9.56-2.25,3.34-11.63,11.16-11.63,11.16,0,0-12.18,7.85-15.3,11.47-2.03,2.37-5.9,11-5.9,11l-28.84,7.17,4.78-6.22s4.03-7,4.78-9.56c.52-1.78.58-5.56,1.12-7.33.82-2.73,3.46-7.83,4.78-10.36,1.23-2.36,4.09-6.97,6.06-8.76,1.73-1.58,8.16-4.6,8.16-4.6l9.01-4.59s4.18-1.54,5.75-3.4c3.67-4.34,2.42-7.65,1.24-8.98-.56-.63-2.81-1.86-2.81-1.86Z"/>
          <path class="cls-60" d="m188.66,309.64s-1.99-3.97-2.13-5.52c-.15-1.67.37-5.05.77-6.68.53-2.16,1.99-6.41,3.05-8.37s5.27-7.03,5.27-7.03l9.85-10.45,9.61-5.54-3.99,5.42s-3.94,6.64-5.08,8.91c-.66,1.32-1.82,4.06-2.21,5.49-.19.7-.34,2.14-.43,2.85-.16,1.26-.18,3.83-.5,5.06-.2.79-1.48,2.79-1.48,2.79l-3.78,6.28-4.07,5.28-1.93,1.07-2.96.43Z"/>
          <path class="cls-55" d="m197.47,301.36c-.59.14-2.14-1.14-2.14-1.14,0,0-1.44-1.35-1.21-1.85.26-.57,2.5-.36,2.5-.36,0,0,1.74-.26,2.07.14.29.37-.29,1.85-.29,1.85,0,0-.53,1.26-.93,1.36Z"/>
          <path class="cls-54" d="m90.64,450.44s22.43,3.6,28.97,2.91c3.81-.4,11.02-3.27,14.57-4.69,4.46-1.79,13.4-5.56,17.28-8.39,2.19-1.6,7.65-7.65,7.65-7.65,0,0-2.44-1.41-3.17-2-1.64-1.3-4.32-4.6-5.96-5.9-.91-.72-2.89-1.98-3.95-2.47-.95-.44-2.94-1.38-3.98-1.29-2.15.18-6.31,2.47-8.26,3.38-1.73.8-6.8,5.43-6.85,5.56l-9.05,8.16-5.21,3.81-10.87,6.04-11.17,2.54Z"/>
          <path class="cls-54" d="m180.71,437.26s4.98-4.19,6.04-6.04c1.22-2.13,1.87-7.21,1.81-9.67-.05-1.97-1.41-5.94-3.11-7.25-1.14-.87-5.84-1.45-5.84-1.45l-10.37-4.69s-.84-4.44-.74-5.93c.27-4.2,4.49-12.1,4.2-16.3-.25-3.53-5.66-9.55-5.43-13.09.12-1.89,3.78-6.58,3.78-6.58l28.81-5.77s-3.49,9.76-4.44,13.09-2.44,10.31-2.72,13.83-.12,10.61.49,14.07c.45,2.56,1.55,7.88,3.21,9.88s6.72,3.99,9.14,4.94c1.6.63,5.26.73,6.67,1.73,1.27.9,3.19,3.65,3.46,5.18.37,2.06-.81,6.4-1.98,8.15-1.27,1.91-5.23,4.7-7.41,5.43-6.06,2.04-25.56.45-25.56.45Z"/>
          <path class="cls-58" d="m176.41,412.61c.92.18,3.74.27,3.74.27l-10.61-4.81-.86-6.42,2.91-9.89s1.67-5.19,1.43-6.95c-.4-2.9-5.35-10.43-5.35-10.43l-.21-2.32s-3.24,4.2-4.33,5.8c-.71,1.05-3.05,3.97-3.05,3.97,0,0-1.18,2.83-1.41,3.78-.4,1.71-.13,5.64.18,7.38.48,2.63,3.47,9.83,3.47,9.83,0,0,3.78,5.24,5.5,6.46,1.87,1.32,6.34,2.9,8.58,3.34Z"/>
          <path class="cls-55" d="m169.46,387.21c-1.43,1.1-7.22.36-7.22.36,0,0-1.77-.49-2.05-.98-.22-.39-.13-1.46.18-1.78.27-.29,1.12-.39,1.52-.45,1.45-.22,4.44-.37,5.88-.09.62.12,2,.43,2.32.98.03.05-.01.1-.04.25-.08.47-.28,1.48-.59,1.71Z"/>
        </g>
        <line class="cls-29" x1="116.37" y1="380.86" x2="118.17" y2="330.64"/>
        <line class="cls-29" x1="121.47" y1="375.62" x2="123.27" y2="325.4"/>
        <line class="cls-33" x1="150.85" y1="371.57" x2="152.35" y2="314.6"/>
        <line class="cls-33" x1="144.56" y1="375.92" x2="146.06" y2="321.8"/>
        <line class="cls-47" x1="116.37" y1="379.06" x2="118.02" y2="331.69"/>
        <line class="cls-47" x1="121.4" y1="374.04" x2="123.05" y2="326.67"/>
        <line class="cls-50" x1="144.41" y1="375.92" x2="146.06" y2="322.55"/>
        <line class="cls-50" x1="150.63" y1="369.99" x2="152.28" y2="316.63"/>
        <polygon class="cls-49" points="467.14 305.68 467.14 245.75 482.75 241.73 497.86 234.17 517 221.08 521.03 214.53 556.78 219.57 592.03 221.08 639.37 221.08 676.64 218.56 699.3 216.55 706.85 217.55 718.44 223.6 766.28 254.82 731.53 265.39 634.34 291.58 567.36 310.21 509.44 327.84 498.87 316.76 484.77 310.21 467.14 305.68"/>
        <polygon class="cls-45" points="528.08 338.42 511.37 328.96 768.43 256.28 770.81 267.41 528.08 338.42"/>
        <path class="cls-53" d="m545.8,323.04c-.35,1.89,1.46,7.57,1.46,7.57l-5.24,1.46,2.33,8.73,6.4,2.91,9.02-1.75,3.2-5.24-2.33-7.86-4.95-1.46-2.62-7.86-4.37-1.16s-2.66,3.31-2.91,4.66Z"/>
        <polygon class="cls-53" points="598.78 332.07 594.13 331.19 592.09 323.33 594.13 317.8 597.91 314.02 594.71 305.58 600.53 303.83 602.57 304.12 606.06 313.44 613.05 315.18 616.25 323.04 612.76 327.12 605.48 330.03 598.78 332.07"/>
        <polygon class="cls-53" points="661.08 317.8 650.89 315.77 647.69 306.74 652.35 302.37 654.68 301.21 651.77 290.73 654.97 289.57 661.66 288.11 664.86 295.68 673.02 301.5 674.76 309.94 671.85 313.73 661.08 317.8"/>
        <polygon class="cls-53" points="721.05 302.67 715.81 285.78 715.52 281.71 713.48 274.43 718.14 271.23 721.34 271.52 725.71 279.38 727.16 281.41 730.36 301.21 725.42 303.25 721.05 302.67"/>
        <polygon class="cls-53" points="544.93 217.37 549.59 204.56 553.66 204.56 557.74 206.31 555.41 218.24 544.93 217.37"/>
        <polyline class="cls-53" points="577.24 218.83 575.79 216.5 578.41 210.09 586.56 207.18 594.13 208.35 600.82 211.84 599.66 219.12 576.08 218.83"/>
        <polygon class="cls-53" points="616.25 219.41 617.71 210.38 626.15 207.18 638.96 209.51 643.61 214.75 643.03 219.12 616.25 219.41"/>
        <polygon class="cls-53" points="669.52 216.79 670.69 205.14 676.51 204.27 679.71 206.02 681.75 208.64 681.46 216.5 669.52 216.79"/>
        <line class="cls-11" x1="548.71" y1="340.51" x2="545.51" y2="332.65"/>
        <line class="cls-11" x1="596.75" y1="330.61" x2="594.42" y2="321.3"/>
        <line class="cls-11" x1="653.51" y1="314.02" x2="650.6" y2="305.58"/>
        <line class="cls-11" x1="725.71" y1="301.21" x2="721.34" y2="281.71"/>
        <line class="cls-11" x1="672.72" y1="215.04" x2="673.31" y2="206.02"/>
        <line class="cls-11" x1="619.45" y1="217.08" x2="620.33" y2="210.68"/>
        <line class="cls-11" x1="580.15" y1="216.79" x2="581.9" y2="210.09"/>
        <line class="cls-11" x1="549" y1="216.5" x2="551.04" y2="205.73"/>
        <polygon class="cls-48" points="157.3 318.14 155.58 321.79 154.3 350.77 155.94 369 158.06 368.56 317.87 335.31 467.06 304.62 465.99 245.16 157.3 318.14"/>
        <path class="cls-51" d="m158.41,368.19c.64-.21.39-50.26.39-50.26"/>
        <line class="cls-51" x1="161.76" y1="367.77" x2="161.81" y2="317.07"/>
        <line class="cls-51" x1="165.45" y1="366.93" x2="165.24" y2="316.42"/>
        <line class="cls-51" x1="169.47" y1="365.85" x2="169.97" y2="314.92"/>
        <line class="cls-51" x1="173.62" y1="365.15" x2="174.69" y2="313.85"/>
        <line class="cls-51" x1="178.55" y1="364.08" x2="179.63" y2="312.99"/>
        <line class="cls-51" x1="183.92" y1="363.22" x2="185.21" y2="311.27"/>
        <line class="cls-51" x1="189.29" y1="361.93" x2="190.57" y2="309.98"/>
        <line class="cls-51" x1="195.3" y1="360.43" x2="196.59" y2="308.48"/>
        <line class="cls-51" x1="201.74" y1="359.57" x2="203.03" y2="306.98"/>
        <line class="cls-51" x1="208.39" y1="358.28" x2="210.54" y2="304.83"/>
        <line class="cls-51" x1="215.91" y1="356.57" x2="219.13" y2="303.33"/>
        <line class="cls-51" x1="224.28" y1="354.63" x2="227.93" y2="300.97"/>
        <line class="cls-51" x1="233.51" y1="352.49" x2="236.94" y2="299.25"/>
        <line class="cls-51" x1="243.38" y1="350.99" x2="248.11" y2="296.46"/>
        <line class="cls-51" x1="254.33" y1="348.41" x2="259.7" y2="293.67"/>
        <line class="cls-51" x1="267" y1="345.83" x2="272.79" y2="290.66"/>
        <line class="cls-51" x1="280.09" y1="343.26" x2="287.39" y2="287.23"/>
        <line class="cls-51" x1="295.12" y1="339.82" x2="303.7" y2="283.37"/>
        <line class="cls-51" x1="311.86" y1="337.03" x2="320.66" y2="279.72"/>
        <line class="cls-51" x1="331.18" y1="332.52" x2="341.91" y2="274.35"/>
        <line class="cls-51" x1="350.71" y1="328.66" x2="365.31" y2="268.55"/>
        <line class="cls-51" x1="376.26" y1="322.86" x2="391.5" y2="262.11"/>
        <line class="cls-51" x1="403.31" y1="317.28" x2="422.41" y2="254.6"/>
        <path class="cls-42" d="m197.47,363.77l275.87-55.07-7.56-2.65-266.27,55.1c-1.23.25-2.1,1.36-2.04,2.62h0Z"/>
        <polygon class="cls-42" points="439.51 308 460.65 242.75 467.14 245.75 445.34 309.82 439.51 308"/>
        <polygon class="cls-42" points="439.51 311.28 434.77 307.63 439.51 308 444.98 311.28 439.51 311.28"/>
        <polygon class="cls-43" points="455.55 244.94 434.77 307.63 439.51 308 460.65 242.75 455.55 244.94"/>
        <g>
          <path class="cls-54" d="m116.19,411.16l-9.4-1.11s2.11-1.49,2.58-2.19c.88-1.32,2.08-4.48,1.94-6.06-.09-.95-1.81-3.35-1.81-3.35,0,0,5.75-.14,7.35.77.7.4,1.65,1.83,1.94,2.58.32.85.42,2.72.26,3.61-.3,1.68-2.76,5.6-2.76,5.6"/>
          <path class="cls-59" d="m106.66,410.17c-.71-.2-1.63-1.61-1.81-2.32-.25-1.03-.31-3.24,0-4.26s1.39-2.82,2.06-3.61c.49-.57,1.85-1.71,2.58-1.55.93.21,1.62,2.42,1.81,3.35.34,1.69-.51,5.34-1.55,6.71-.53.7-2.25,1.91-3.1,1.68Z"/>
          <line class="cls-20" x1="112.08" y1="405.66" x2="112.21" y2="404.11"/>
          <path class="cls-20" d="m106.02,409.14s-.58-1.63-.65-2.19c-.08-.64.09-1.95.26-2.58.24-.92,1.55-3.48,1.55-3.48"/>
        </g>
        <g>
          <path class="cls-54" d="m88.6,413.77l-8.22-1.23s1.9-1.34,2.32-1.97c.79-1.19,1.87-4.03,1.74-5.45-.08-.85-1.62-3.01-1.62-3.01,0,0,5.16-.12,6.61.7.63.36,1.49,1.64,1.74,2.32.28.76.38,2.45.23,3.25-.27,1.51-2.55,5.57-2.55,5.57"/>
          <path class="cls-59" d="m80.26,412.66c-.64-.18-1.47-1.44-1.62-2.09-.23-.93-.28-2.91,0-3.83s1.25-2.54,1.86-3.25c.44-.51,1.66-1.54,2.32-1.39.84.19,1.45,2.18,1.62,3.01.31,1.52-.45,4.8-1.39,6.03-.48.63-2.02,1.72-2.78,1.51Z"/>
          <line class="cls-20" x1="85.13" y1="408.6" x2="85.25" y2="407.21"/>
          <path class="cls-20" d="m79.68,411.73s-.52-1.46-.58-1.97c-.07-.58.08-1.76.23-2.32"/>
        </g>
        <g>
          <path class="cls-22" d="m99.97,429.3c-.39.09-1.15-.36-1.47-.59-.48-.34-1.19-1.38-1.35-1.94-.29-.96-.08-3.02.12-4,.22-1.1.83-3.36,1.59-4.18.27-.28,1.03-.72,1.41-.65.57.1,1.38,1.13,1.65,1.65.29.57.32,1.89.35,2.53.05.9.03,2.71-.12,3.59-.08.49-.59,1.88-.59,1.88,0,0-1.02,1.58-1.59,1.71Z"/>
          <path class="cls-22" d="m99.79,421.41c-1.08-1.63-5.04-3.07-6.89-3.71-.4-.14-1.24-.37-1.65-.29-.46.09-1.31.62-1.59,1-.21.28-.33,1-.35,1.35-.03.51,0,1.59.29,2,.15.22.69.43.94.53,1.11.43,4.65,1.06,4.65,1.06,0,0,2.01.65,2.71.65.47,0,1.55-.09,1.83-.47.31-.43.35-1.68.06-2.12Z"/>
          <polygon class="cls-7" points="90.43 420.23 91.14 418.64 89.96 419.52 90.43 420.23"/>
          <line class="cls-19" x1="92.9" y1="419.58" x2="94.32" y2="420.05"/>
          <polyline class="cls-3" points="100.15 424.29 100.2 422.29 101.21 424.7 101.5 422.41"/>
        </g>
        <polygon class="cls-4" points="118.65 328.54 120.65 328.44 120.96 330.13 118.65 328.54"/>
        <path class="cls-4" d="m122.89,323.39c-.11-1.59,4.39-2.88,5.92-2.4.34.11,1.04.6,1.05.95.46,15.94.36,39.47.2,52.66-.02,1.42-1.76,4.1-2.98,4.84-.79.48-2.8.53-3.69.3-1.16-.3-4-2.66-4-2.66,0,0,4.02,2.41,4.42,3.82.21.75-.48,2.35-.96,2.95-.42.52-1.65,1.34-2.33,1.36-1.1.03-3.9-2.02-3.9-2.02l2.33-.94-.29-5.91,5.38.55.12-53.19s-1.24,0-1.26-.32Z"/>
        <g>
          <ellipse class="cls-22" cx="97.61" cy="335.46" rx="1.9" ry="2.37"/>
          <ellipse class="cls-22" cx="98" cy="340.68" rx="2.04" ry="2.42"/>
          <ellipse class="cls-22" cx="98.3" cy="346.14" rx="2.08" ry="2.51"/>
          <ellipse class="cls-22" cx="98.64" cy="351.55" rx="2.35" ry="2.74"/>
          <ellipse class="cls-22" cx="98.93" cy="357.46" rx="2.22" ry="2.74"/>
          <ellipse class="cls-22" cx="99.13" cy="363.14" rx="2.17" ry="2.6"/>
          <ellipse class="cls-22" cx="99.24" cy="369.01" rx="2.22" ry="2.74"/>
          <ellipse class="cls-22" cx="99.49" cy="375.42" rx="2.49" ry="2.87"/>
          <polygon class="cls-4" points="99.26 333.74 98.99 332.73 107.27 330.31 109.81 330.78 109.25 336.14 109.61 336.32 108.68 341.68 109.68 341.87 109.02 347.87 110.2 348.05 108.99 354.32 110.62 354.69 109.69 360.23 110.42 360.33 109.85 365.78 111.39 366.24 110.46 372.42 111.45 373.15 111.07 378.69 103.7 380.12 99.16 378.28 101.07 377.56 99.26 333.74"/>
          <line class="cls-10" x1="98.48" y1="376.11" x2="101.98" y2="375.42"/>
          <line class="cls-10" x1="99.06" y1="370.24" x2="101.16" y2="369.84"/>
          <line class="cls-10" x1="98.63" y1="364.03" x2="100.96" y2="363.79"/>
          <line class="cls-10" x1="98.06" y1="358.48" x2="100.88" y2="358"/>
          <line class="cls-10" x1="98.06" y1="352.37" x2="100.48" y2="351.97"/>
          <line class="cls-10" x1="100.38" y1="346.14" x2="98.3" y2="346.14"/>
          <line class="cls-10" x1="98" y1="340.68" x2="100.04" y2="340.68"/>
          <line class="cls-10" x1="97.61" y1="335.46" x2="100.08" y2="334.84"/>
          <ellipse class="cls-7" cx="96.13" cy="335.4" rx=".24" ry=".4"/>
          <ellipse class="cls-7" cx="96.34" cy="340.79" rx=".28" ry=".48"/>
          <ellipse class="cls-7" cx="96.58" cy="346.18" rx=".2" ry=".4"/>
          <ellipse class="cls-7" cx="96.34" cy="352.37" rx=".2" ry=".4"/>
          <ellipse class="cls-7" cx="96.7" cy="358.24" rx=".08" ry=".32"/>
          <ellipse class="cls-7" cx="97.14" cy="363.55" rx=".12" ry=".32"/>
          <ellipse class="cls-7" cx="97.18" cy="370.02" rx=".16" ry=".28"/>
          <ellipse class="cls-7" cx="97.18" cy="376.13" rx=".08" ry=".44"/>
          <line class="cls-35" x1="105.62" y1="336.61" x2="106.83" y2="331.06"/>
          <line class="cls-35" x1="104.9" y1="341.19" x2="105.62" y2="337.89"/>
          <line class="cls-35" x1="105.22" y1="347.14" x2="105.95" y2="341.99"/>
          <line class="cls-35" x1="105.54" y1="352.77" x2="106.35" y2="347.7"/>
          <line class="cls-35" x1="105.38" y1="359.04" x2="106.35" y2="353.9"/>
          <line class="cls-35" x1="105.78" y1="365.8" x2="106.75" y2="359.69"/>
          <line class="cls-35" x1="106.35" y1="371.67" x2="107.31" y2="365.96"/>
          <line class="cls-35" x1="106.67" y1="378.02" x2="107.55" y2="372.39"/>
        </g>
        <ellipse class="cls-23" cx="526.58" cy="233.43" rx="7.78" ry="7.97"/>
        <ellipse class="cls-23" cx="567.23" cy="237.66" rx="7.83" ry="8.23"/>
        <circle class="cls-23" cx="611.4" cy="239.78" r="8.76"/>
        <ellipse class="cls-23" cx="659.7" cy="238.98" rx="9.82" ry="9.55"/>
        <ellipse class="cls-23" cx="528.62" cy="301.74" rx="8.49" ry="8.36"/>
        <circle class="cls-23" cx="580.76" cy="286.35" r="9.15"/>
        <ellipse class="cls-23" cx="638.6" cy="270.16" rx="9.42" ry="8.89"/>
        <ellipse class="cls-23" cx="702.28" cy="252.65" rx="11.28" ry="10.48"/>
        <polygon class="cls-22" points="469.02 254.05 521.72 261.27 522.52 273.21 469.21 295.04 469.02 254.05"/>
        <polygon class="cls-23" points="529.13 308.78 534.12 304.84 534.32 297.59 527.26 294.25 521.57 297.59 521.57 304.84 529.13 308.78"/>
        <polygon class="cls-23" points="580.99 293.47 586.87 289.74 586.67 281.9 579.12 279.43 573.43 282.76 574.12 290.72 580.99 293.47"/>
        <polygon class="cls-23" points="642.13 276.62 646.37 270.78 643.17 263.31 634.96 263.82 630.76 269.21 634.48 276.61 642.13 276.62"/>
        <polygon class="cls-23" points="707.86 257.39 709.82 248.95 702.55 243.88 694.53 246.4 692.37 254.84 699.64 259.51 707.86 257.39"/>
        <polygon class="cls-23" points="527.09 239.73 531.62 236.15 531.8 229.55 525.38 226.52 520.21 229.55 520.21 236.15 527.09 239.73"/>
        <polygon class="cls-23" points="563.75 244.52 570.64 243.55 573.7 236.33 568.95 230.6 561.29 231.64 558.63 239.18 563.75 244.52"/>
        <polygon class="cls-23" points="610.92 247.02 617.19 243.99 617.9 236.18 611.63 232.18 604.65 235.51 604.42 243.5 610.92 247.02"/>
        <polygon class="cls-23" points="661.3 245.87 666.37 241.1 664.7 233.44 657.51 231.51 651.86 236.79 654.04 244.48 661.3 245.87"/>
        <path class="cls-22" d="m526.52,304.27c-1.71-.11-5.24-1.26-6.39-2.53-.83-.93-1.07-3.89-.44-4.97.52-.89,2.75-1.76,3.78-1.7,1.71.09,5.19,1.18,6.43,2.36.57.55,1.21,2.14,1.23,2.93s-.53,2.49-1.13,3.03c-.67.6-2.58.94-3.47.89Z"/>
        <path class="cls-22" d="m577.85,288.84c-1.64-.5-4.81-2.42-5.64-3.93-.6-1.1-.15-4.04.71-4.94.71-.75,3.08-1.08,4.07-.79,1.64.48,4.78,2.34,5.72,3.77.43.67.69,2.36.53,3.13s-1.09,2.3-1.8,2.68c-.79.43-2.73.33-3.58.07Z"/>
        <path class="cls-22" d="m635.17,271.85c-1.23-1.2-3.15-4.37-3.19-6.09-.02-1.25,1.73-3.65,2.91-4.06.98-.34,3.23.46,3.98,1.18,1.23,1.19,3.16,4.28,3.33,5.99.08.79-.47,2.41-.98,3.02s-2.03,1.54-2.83,1.55c-.9.02-2.57-.97-3.21-1.59Z"/>
        <path class="cls-22" d="m697.35,253.73c-1.42-1.2-3.73-4.48-3.89-6.34-.12-1.35,1.61-4.12,2.86-4.66,1.04-.45,3.53.22,4.39.93,1.42,1.18,3.73,4.38,4.04,6.21.14.85-.34,2.66-.84,3.37s-2.08,1.85-2.96,1.94c-.97.1-2.85-.83-3.59-1.45Z"/>
        <path class="cls-22" d="m655.24,240.67c-1-1.56-2.24-5.38-1.84-7.21.29-1.33,2.75-3.46,4.11-3.61,1.12-.12,3.31,1.25,3.92,2.19,1.01,1.55,2.27,5.29,2.02,7.13-.12.86-1.11,2.44-1.8,2.97s-2.54,1.15-3.4.97c-.95-.19-2.48-1.63-3-2.45Z"/>
        <path class="cls-22" d="m605.93,240.87c-1.09-1.5-2.56-5.23-2.28-7.08.21-1.34,2.54-3.62,3.88-3.85,1.11-.19,3.38,1.05,4.04,1.95,1.1,1.49,2.59,5.14,2.45,7-.07.86-.96,2.51-1.62,3.08s-2.46,1.3-3.33,1.18c-.96-.13-2.58-1.48-3.15-2.26Z"/>
        <path class="cls-22" d="m562.28,240.37c-1.29-1.33-3.26-4.83-3.23-6.7.02-1.36,2.01-3.94,3.31-4.35,1.08-.35,3.49.57,4.27,1.37,1.3,1.32,3.28,4.73,3.39,6.59.05.86-.61,2.61-1.18,3.27s-2.26,1.63-3.13,1.63c-.97,0-2.76-1.11-3.43-1.8Z"/>
        <path class="cls-22" d="m523.03,235.87c-1.55-1.02-4.25-3.98-4.64-5.81-.28-1.33,1.09-4.29,2.26-4.98.97-.58,3.53-.22,4.47.39,1.56,1,4.24,3.89,4.77,5.67.24.83-.01,2.68-.42,3.45s-1.84,2.09-2.7,2.28c-.95.22-2.93-.47-3.74-1Z"/>
        <ellipse class="cls-24" cx="522.78" cy="298.12" rx="1.27" ry="1.37"/>
        <ellipse class="cls-24" cx="576.53" cy="282.55" rx="1.66" ry="1.47"/>
        <circle class="cls-24" cx="522" cy="229" r="1.37"/>
        <ellipse class="cls-24" cx="562.82" cy="233.6" rx="1.08" ry=".88"/>
        <circle class="cls-24" cx="607.17" cy="235.27" r="1.17"/>
        <ellipse class="cls-24" cx="635.76" cy="266.11" rx="1.57" ry="1.47"/>
        <ellipse class="cls-24" cx="698.8" cy="247.99" rx="1.57" ry="1.37"/>
        <ellipse class="cls-24" cx="656.02" cy="234.29" rx="1.47" ry="1.17"/>
        <path class="cls-18" d="m518.41,231.47s1.04,2.5,1.75,2.99,2.52.77,3.37.62c.99-.17,2.98-1.13,3.49-2,.62-1.04.12-4.87.12-4.87"/>
        <path class="cls-27" d="m526.74,296.41c.38.11.91.8,1.07,1.15.23.51.4,1.69.25,2.23-.2.71-1.16,1.97-1.81,2.31-.58.31-1.98.25-2.64.16-.31-.04-1.07-.34-1.07-.66"/>
        <path class="cls-27" d="m580.07,281.32s.83.93.91,1.32c.13.62-.18,1.93-.49,2.47-.26.46-1.09,1.18-1.57,1.4-.64.3-2.1.52-2.8.41-.5-.08-1.81-.91-1.81-.91"/>
        <path class="cls-34" d="m633.33,269.45s.9.62,1.24.74c.55.21,1.73.49,2.31.41.74-.09,2.23-.67,2.72-1.24.39-.45.63-1.71.66-2.31.04-.73-.49-2.89-.49-2.89"/>
        <path class="cls-34" d="m695.06,250.82s.79,1.42,1.24,1.69,1.6.37,2.14.34c.7-.04,2.12-.39,2.7-.79.38-.26.88-1.08,1.13-1.46.33-.51,1.03-1.54,1.13-2.14.08-.48-.34-1.92-.34-1.92"/>
        <path class="cls-18" d="m652.59,235.38s.37,2.38.9,2.93c.48.49,1.91.84,2.59.9s2.06-.23,2.7-.45c.88-.31,3.27-1.8,3.27-1.8"/>
        <path class="cls-18" d="m558.68,235.12s.72,3.16,1.41,3.87c.55.56,2.15,1.08,2.93,1.13,1.19.08,3.73-.34,4.62-1.13s1.7-3.15,1.58-4.28-1.69-3.23-2.59-4.02c-.38-.33-.78-.77-.78-.77"/>
        <path class="cls-18" d="m561.93,239.77c.81.56,3.73-.51,4.62-.95.65-.32,1.54-2.77,1.73-3.46.22-.79-.27-1.86-.54-2.64s-1.9-2.51-1.9-2.51"/>
        <polyline class="cls-18" points="603.31 238.13 605.01 240.72 608.07 240.83 610.9 239.83 612.66 238.07 612.9 236.13"/>
        <polyline class="cls-18" points="603.66 240.24 605.72 241.66 607.31 241.66 610.66 240.48"/>
      </g>
      <g id="Strings">
        <path id="Lowest1" class="cls-51" d="m103.52,333.4l354.78-85.51s64.23-12.05,66.64-12.51c1.23-.23,3.07-2.62,3.18-3.87.13-1.42-1.35-5.53-2.74-4.99"/>
        <polyline id="String2" class="cls-18" points="102.78 339.67 455.67 256.7 562.28 240.37"/>
        <path id="String3" class="cls-18" d="m105.02,350.16l345.17-76.86,205.06-32.63h1.17s2.28-.29,2.93-.67c.88-.52,2.41-2.07,2.7-3.04.25-.82-.11-2.6-.45-3.38-.16-.37-1.01-1.24-1.01-1.24"/>
        <polyline id="String4" class="cls-18" points="105.02 355.87 445.9 281.66 694.02 245.16"/>
        <polyline id="String5" class="cls-34" points="106.04 361.78 444.48 289.61 631.64 264.53"/>
        <polyline id="String6" class="cls-27" points="106.24 368.31 441.83 297.15 571.29 281.66"/>
        <polyline id="String7" class="cls-27" points="106.85 374.42 439.79 304.49 519.69 296.76"/>
        <path id="Highest8" class="cls-9" d="m603.07,236.78s1.28,2.34,2,2.82c.41.28,1.44.49,1.94.47,1.13-.05,3.49-.62,4.29-1.41.54-.53.94-2.12,1-2.88.07-.91-1.53-3.26-.68-3.6.61-.24,1.39,2.24,1.39,2.24l.76,3.23-3,3.82-3.65,1-.48-.09-153.09,22.73-349.58,79.05"/>
      </g>
      <g id="fretHand">
        <polygon id="handPath" class="cls-25" points="428.01 330.41 419.08 342.01 410.43 347.17 394.91 345.17 385.67 350.99 371.42 348.92 359.58 353.49 347.49 351.24 330.32 336.65 408.2 321.15 426.93 317.58 428.01 330.41"/>
        <g id="pinkieFinger">
          <polyline id="secondSegmentPointer" class="cls-39" points="320.39 300.27 335.86 279.15 346.96 281.29 351.82 289.49 335.89 311.09"/>
          <g id="firstSegmentPointer">
            <polygon class="cls-56" points="346.29 342.39 338.57 297.79 320.13 300.41 338.48 343.28 346.29 342.39"/>
            <path class="cls-25" d="m338.85,343.67l-.24.05-13.46-10.66-4.87-32.78"/>
            <path class="cls-25" d="m343.96,328.92c-.61-4.03-5.11-31.86-5.11-31.86"/>
          </g>
        </g>
        <g id="ringFinger">
          <polyline id="secondSegmentPointer-2" data-name="secondSegmentPointer" class="cls-39" points="338.06 294.49 363.05 281.86 372.59 289.28 373.25 299.45 347.59 312.32"/>
          <g id="firstSegmentPointer-2" data-name="firstSegmentPointer">
            <polygon class="cls-56" points="365.98 339.96 357.39 292.32 337.69 295.26 357.63 340.97 365.98 339.96"/>
            <path class="cls-25" d="m358.04,341.39l-.25.05-14.47-11.3-5.46-35.02"/>
            <path class="cls-25" d="m363.39,325.58c-.68-4.31-5.71-34.03-5.71-34.03"/>
          </g>
        </g>
        <g id="middleFinger">
          <polyline id="secondSegmentPointer-3" data-name="secondSegmentPointer" class="cls-39" points="351.27 295.09 356.85 266.04 369.22 262.86 378.15 268.88 372.32 298.65"/>
          <g id="firstSegmentPointer-3" data-name="firstSegmentPointer">
            <polygon class="cls-56" points="387.17 338.31 371.34 289.67 351.14 295.57 378.57 340.56 387.17 338.31"/>
            <path class="cls-25" d="m379.06,340.94l-.26.09-16.77-9.75-10.74-35.87"/>
            <path class="cls-25" d="m382.39,323.62c-1.33-4.41-10.86-34.81-10.86-34.81"/>
          </g>
        </g>
        <g id="pointerFinger">
          <polyline id="secondSegmentPointer-4" data-name="secondSegmentPointer" class="cls-39" points="386.05 285.39 413.63 274.23 423.07 282.94 422.87 293.76 394.55 305.11"/>
          <g id="firstSegmentPointer-4" data-name="firstSegmentPointer">
            <polygon class="cls-56" points="404.73 339.26 407.04 287.87 385.93 286.28 395.84 338.34 404.73 339.26"/>
            <path class="cls-25" d="m396.16,338.87h-.28s-12.34-15.12-12.34-15.12l2.58-37.57"/>
            <path class="cls-25" d="m405.43,323.74c.31-4.62,2.1-36.61,2.1-36.61"/>
          </g>
        </g>
      </g>
    </g>
    <g id="mobileLeg">
      <polyline class="cls-2" points="161.76 477.4 132.44 479.98 125.59 517.14 189.24 778.3 146.92 774.17 45.24 458.82 49.37 424.7 76.21 410.2 146.03 422.24 150.85 425.61 155.94 430.61 161.48 434.6"/>
      <line class="cls-40" x1="132.44" y1="479.98" x2="114.87" y2="453.36"/>
    </g>
    <g id="mobileFoot">
      <g class="cls-64">
        <polygon class="cls-25" points="198.34 786.54 186.59 802.74 102.77 813.47 89.5 810.43 83.81 795.64 73.19 726.24 87.6 694.76 130.59 723.54 175.21 769.47 198.34 786.54"/>
        <polygon class="cls-25" points="89.5 810.43 82.78 811.2 67.05 807.56 49.03 741.78 45.24 708.79 59.77 678.5 87.96 693.07 87.6 694.76 73.19 726.24 83.81 795.64 89.5 810.43"/>
        <polygon class="cls-25" points="66.57 805.8 53.25 802.74 29.66 706.49 46.34 676 59.77 678.5 45.24 708.79 49.03 741.78 66.57 805.8"/>
        <polygon class="cls-25" points="53.25 802.74 45.96 802.74 30.62 762.11 21.03 710.71 31.96 688.28 39.63 688.28 29.66 706.49 53.25 802.74"/>
      </g>
    </g>
    <g id="strumHand">
      <polygon id="Pick" class="cls-6" points="117.01 339.5 122.37 346.14 134.35 345.77 142.9 340.79 146.42 331.69 135.7 329.29 125.59 329.29 115.99 333.4 117.01 339.5"/>
      <polyline id="Hand" class="cls-8" points="52.49 319.99 89.68 316.66 116.18 314.96 131.28 319.84 131.28 332.38 122.07 336.58 102.19 333.43 89.68 344.84 92.01 353.71 105.76 358.31 120.78 344.17 122.37 346.14 130.19 345.77 134.35 345.77 140.67 342.42 139.01 353.29 126.49 368.01 108.45 377.66 77.9 378.31 52.49 359.2 52.49 319.99"/>
    </g>
  </g>
</svg>