<?xml version="1.0" encoding="UTF-8"?>
  <?xml-stylesheet type="text/css" href="../css/stylesheet.css"?>
<svg id="Layer_2" data-name="Layer 2" xmlns="http://www.w3.org/2000/svg" xmlns:xlink="http://www.w3.org/1999/xlink" viewBox="0 0 423.01 252.45">
  <defs>
    <style>
      .cls-1, .cls-2, .cls-3 {
        fill: none;
      }

      .cls-4 {
        fill: #2e3192;
      }

      .cls-4, .cls-5, .cls-6, .cls-7, .cls-8, .cls-9, .cls-3 {
        stroke: #231f20;
      }

      .cls-4, .cls-5, .cls-6, .cls-2, .cls-3 {
        stroke-linecap: round;
      }

      .cls-4, .cls-5, .cls-6, .cls-3 {
        stroke-linejoin: round;
      }

      .cls-10 {
        clip-path: url(#clippath);
      }

      .cls-11, .cls-6 {
        fill: #fff;
      }

      .cls-12, .cls-7 {
        fill: #feecbd;
      }

      .cls-13 {
        clip-path: url(#clippath-1);
      }

      .cls-5 {
        fill: #231f20;
      }

      .cls-5, .cls-6, .cls-3 {
        stroke-width: .5px;
      }

      .cls-7, .cls-8, .cls-9, .cls-2 {
        stroke-miterlimit: 10;
      }

      .cls-8 {
        fill: #bbb4b3;
      }

      .cls-9 {
        fill: #4c3794;
      }

      .cls-2 {
        stroke: #fff;
        stroke-width: 4px;
      }
    </style>
    <clipPath id="clippath">
      <polyline id="smallClippingPath" class="cls-1" points="228.58 197.66 225.92 197.68 204.58 197.59 203.07 207.04 206.91 209.51 226 207.72 225.94 197.79 227.54 194.71"/>
    </clipPath>
    <clipPath id="clippath-1">
      <polyline id="largeClippingPath" class="cls-1" points="235.77 197.88 284.16 197.89 281.39 204.98 245.32 212.19 237.95 208.57 238.04 197.91 236.56 194.2"/>
    </clipPath>
  </defs>
  <g id="Head">
    <g id="HeadGroup">
      <polygon id="headBackplate" class="cls-12" points="271.31 151.69 348.68 174.55 326.87 187.56 313.5 206.54 266.89 171.93 271.31 151.69"/>
      <g id="exposedEar">
        <polyline class="cls-7" points="273.29 150.24 420.83 153.13 320.66 199.52 408.32 158.31 314.14 163.82 305.32 169.93 296.03 176.36"/>
        <polygon class="cls-8" points="305.84 170.07 316.66 168.73 311.41 175.14 319.4 170.03 311.03 194.09 318.3 185.79 303.85 209.74 320.66 199.52 406.56 158.88 314.14 163.82 305.84 170.07"/>
      </g>
      <g id="coveredEar">
        <polyline class="cls-7" points="226.68 171.81 219.05 165.23 211.8 158.98 133.46 151.92 205.79 194.57 123.13 146.53 246.04 146.07"/>
        <polygon class="cls-8" points="218.61 165.36 209.63 163.85 213.89 170.34 207.32 165.1 213.9 189.3 207.98 180.88 230.2 207.58 205.79 194.57 134.92 152.52 211.8 158.98 218.61 165.36"/>
      </g>
      <g id="headBaseShape">
        <polyline class="cls-7" points="304.52 199.52 346.64 199.59 323.66 209.76 344.15 205.37 310.14 219.41 333.68 214.74 297.49 234.86 321.66 228.67 269.3 246.52 250.38 245.43 192.33 251.93 165.7 226.36 162.7 220.22 173.5 207.5 195.15 210.14 201.59 209.62 226 207.67 202.62 209.19 204.73 196.49 202.15 177.84 207.48 162.63 220.11 149.31 245.17 145.88 271.09 149.47"/>
        <polygon class="cls-7" points="204.15 195.24 186.53 194.59 200.14 202.6 189.2 201.41 200.8 208.08 192.55 206.69 198.6 209.81 202.21 209.24 204.3 196.5 204.15 195.24"/>
      </g>
      <g id="Nose">
        <polygon class="cls-4" points="174.34 221.34 170.91 215.04 175.45 213.17 184 212.03 189.36 216.43 174.34 221.34"/>
        <polyline class="cls-11" points="176.22 213.74 187.39 215.76 183.81 212.69"/>
      </g>
      <g id="smallEyeClip">
        <g class="cls-10">
          <g id="smallEye">
            <polygon class="cls-5" points="217.1 204.72 215.41 197.44 230.24 200.94 217.1 204.72"/>
            <polyline class="cls-6" points="215.41 197.44 230.88 197.61 230.24 200.94"/>
          </g>
        </g>
      </g>
      <g id="largeEyeClip">
        <g class="cls-13">
          <g id="largeEye">
            <polygon class="cls-5" points="261.12 205.15 258.19 197.86 283.61 201.46 261.12 205.15"/>
            <polyline class="cls-6" points="258.19 197.86 284.69 198.13 283.61 201.46"/>
          </g>
        </g>
      </g>
      <polyline id="largeEyeHole" class="cls-3" points="235.77 197.88 284.16 197.89 281.39 204.98 245.32 212.19 237.95 208.57 238.04 197.91 236.56 194.2"/>
      <polyline id="smallEyeHole" class="cls-3" points="228.58 197.52 225.92 197.54 204.58 197.46 203.07 206.9 206.91 209.37 226 207.58 225.94 197.65 227.54 194.57"/>
      <g id="Hair">
        <path id="Hair-2" data-name="Hair" class="cls-9" 
        d="m268.43,155.2l-81.82,25.11-46.06,16.52,31.05-21.84,32.06-15.87
        c-.21-.53-72.44,23.52-72.44,23.52
        l-53.1,20.47-47.87,21.66,39.19-32.29,52.19-33.2,44.04-24.2-58.56,15.97-54.22,21.28
        s-30.9,14.45-30.07,14.19,27.74-25.01,27.74-25.01
        l26.53-17.56,35.99-21.84-61.94,14.68-30.36,9.77-17.07,5.98,16.39-10.73,36.47-17.67,72.82-27.85
        s-63.42,17.26-64.42,17.49-52.24,20.42-52.24,20.42
        l38.4-29.87,59.26-22.31-39.39,2.44-46.17,11.36
        s41.32-24.33,42.18-25.44,39.75-13.42,39.75-13.42
        l44.71-7.17,33.63,1.92-54.59-7-33.12,1.18,35.21-9.56,51.37-2.58,57.32,11.53-27.17-20.61-31.41-18.43,38.86,8.73,43.4,23.38,17.99,15.7-12.22-26.55
        S247.87-.07,249.26.51s31.35,22.64,31.61,23.76,20.18,37.89,20.18,37.89
        l7.23,22.55s3.51-27.72,3.24-28.84-2.52-18.83-2.52-18.83
        c0,0,10.46,22.25,10.73,23.12
        s-1.32,29.68-1.32,29.68
        l-12.61,32.97,20.26-24.2,12.81-26.91-7.62,26.7-23.25,30.79,26.1-9.98,24.11-11.45-19.58,17
        s-35.17,18.49-33.72,17.94,22.69-.39,22.69-.39
        l30.75-3.6s-27.34,6.7-27.95,6.69-36.7,7.17-36.7,7.17
        l-21.65,6.79-25.53,7.74,21.89-11.88Z"/>
        <line class="cls-2" x1="83.44" y1="192.36" x2="158.47" y2="148.34"/>
        <line class="cls-2" x1="71.81" y1="153.54" x2="113.12" y2="131.56"/>
        <line class="cls-2" x1="64.88" y1="125.54" x2="107.32" y2="110.76"/>
        <line class="cls-2" x1="184.97" y1="175.31" x2="207.32" y2="165.1"/>
        <line class="cls-2" x1="82.85" y1="99.12" x2="107.27" y2="92.3"/>
      </g>
    </g>
    <polygon class="cls-12" points="226.43 197.24 237.68 197.63 236.04 193.55 228.07 194.11 226.43 197.24"/>
  </g>
</svg>