<?xml version="1.0" encoding="UTF-8"?>
  <?xml-stylesheet type="text/css" href="../css/stylesheet.css"?>
<svg id="MetalButtonObj" data-name="Layer 2" xmlns="http://www.w3.org/2000/svg" xmlns:xlink="http://www.w3.org/1999/xlink" viewBox="0 0 313.11 32.7">
  <defs>
    <style>
      .cls-1 {
        letter-spacing: -.04em;
      }

      .cls-2 {
        fill: #fff;
        font-family: Staatliches-Regular, Staatliches;
        font-size: 19.68px;
      }

      .cls-3 {
        fill: #ed1c24;
      }

      .cls-4 {
        fill: #c2b59b;
      }

      .cls-5 {
        fill: #fafafa;
      }

      .cls-6 {
        fill: #e0e0e0;
      }

      .cls-7 {
        fill: #be1e2d;
      }

      .cls-8 {
        fill: #726658;
      }

      .cls-9 {
        fill: #594a42;
      }

      .cls-10 {
        filter: url(#drop-shadow-2);
      }

      .cls-11 {
        filter: url(#drop-shadow-1);
      }

      .cls-12 {
        letter-spacing: -.04em;
      }
    </style>
    <filter id="drop-shadow-1" filterUnits="userSpaceOnUse">
      <feOffset dx="3" dy="3"/>
      <feGaussianBlur result="blur" stdDeviation="2"/>
      <feFlood flood-color="#231f20" flood-opacity=".8"/>
      <feComposite in2="blur" operator="in"/>
      <feComposite in="SourceGraphic"/>
    </filter>
    <filter id="drop-shadow-2" filterUnits="userSpaceOnUse">
      <feOffset dx="3" dy="3"/>
      <feGaussianBlur result="blur-2" stdDeviation="2"/>
      <feFlood flood-color="#231f20" flood-opacity=".8"/>
      <feComposite in2="blur-2" operator="in"/>
      <feComposite in="SourceGraphic"/>
    </filter>
  </defs>
  <g id="Layer_24" data-name="Layer 24">
        <g id="MetalPlug" class="cls-10">
      <polyline class="cls-5" points="133.82 14.76 143.3 3.73 146.2 3.73 150.15 9.24 155.42 9.24 158.31 3.73 241.85 3.73 243.96 .13 248.65 .13 248.65 14.76"/>
      <polyline class="cls-6" points="133.82 14.5 143.3 25.53 146.2 25.53 150.15 20.01 155.42 20.01 158.31 25.53 241.85 25.53 243.96 29.13 248.65 29.13 248.65 14.5"/>
      <rect class="cls-7" x="248.65" y="3.28" width="64.46" height="21.76"/>
      <rect class="cls-3" x="248.65" y="5.05" width="64.46" height="3.66"/>
    </g>
    <g id="MetalSocket" class="cls-11">
      <rect class="cls-8" x="0" y="0" width="114.5" height="32.41"/>
      <rect class="cls-4" x="114.5" y="3.6" width="6.93" height="24.94"/>
      <polygon class="cls-8" points="127.09 32.41 121.43 32.41 121.43 0 127.09 0 127.09 16.2 127.09 32.41"/>
      <rect class="cls-9" x=".03" y="29.26" width="114.5" height="3.44"/>
      <rect class="cls-9" x="121.43" y="29.26" width="5.66" height="3.44"/>
      <text class="cls-2" transform="translate(40.28 21.49) scale(.82 1)"><tspan x="0" y="0">Me</tspan><tspan class="cls-12" x="18.83" y="0">t</tspan><tspan x="26" y="0">a</tspan><tspan class="cls-1" x="34.4" y="0">l</tspan></text>
    </g>

  </g>
</svg>