<?xml version="1.0" encoding="UTF-8"?>
    <?xml-stylesheet type="text/css" href="../css/stylesheet.css"?>
<svg id="Layer_2" data-name="Layer 2" xmlns="http://www.w3.org/2000/svg" xmlns:xlink="http://www.w3.org/1999/xlink" viewBox="0 0 289.78 310.26">
  <defs>
    <style>
      .cls-1, .cls-2, .cls-3, .cls-4, .cls-5, .cls-6, .cls-7, .cls-8, .cls-9, .cls-10, .cls-11 {
        fill: none;
      }

      .cls-12, .cls-13, .cls-14, .cls-15, .cls-2, .cls-16, .cls-17, .cls-18, .cls-19, .cls-20, .cls-21, .cls-3, .cls-22, .cls-23, .cls-24, .cls-25, .cls-26, .cls-4, .cls-27, .cls-5, .cls-6, .cls-28, .cls-29, .cls-30, .cls-31, .cls-32, .cls-7, .cls-33, .cls-8, .cls-9, .cls-34, .cls-35, .cls-36, .cls-37, .cls-38, .cls-39, .cls-40 {
        stroke-linecap: round;
      }

      .cls-12, .cls-13, .cls-14, .cls-15, .cls-2, .cls-41, .cls-20, .cls-21, .cls-27, .cls-28, .cls-29, .cls-30, .cls-31, .cls-8, .cls-42, .cls-9, .cls-35, .cls-36, .cls-39, .cls-40 {
        stroke-linejoin: round;
      }

      .cls-12, .cls-13, .cls-43, .cls-16, .cls-41, .cls-44, .cls-20, .cls-22, .cls-23, .cls-27, .cls-45, .cls-46, .cls-42, .cls-36 {
        fill: #231f20;
      }

      .cls-12, .cls-14, .cls-2, .cls-17, .cls-22, .cls-7, .cls-39 {
        stroke: #fff;
      }

      .cls-13, .cls-15, .cls-43, .cls-16, .cls-18, .cls-19, .cls-20, .cls-21, .cls-23, .cls-24, .cls-26, .cls-47, .cls-48, .cls-27, .cls-49, .cls-45, .cls-28, .cls-46, .cls-50, .cls-51, .cls-52, .cls-29, .cls-30, .cls-31, .cls-32, .cls-53, .cls-33, .cls-8, .cls-54, .cls-42, .cls-34, .cls-35, .cls-37, .cls-38, .cls-10, .cls-40 {
        stroke: #231f20;
      }

      .cls-14, .cls-55, .cls-25, .cls-31, .cls-53, .cls-39 {
        fill: #fff;
      }

      .cls-15, .cls-19, .cls-56, .cls-26, .cls-48, .cls-49, .cls-30, .cls-37, .cls-38 {
        fill: #feecbd;
      }

      .cls-57, .cls-43, .cls-58, .cls-16, .cls-17, .cls-18, .cls-19, .cls-3, .cls-22, .cls-23, .cls-24, .cls-25, .cls-26, .cls-4, .cls-47, .cls-59, .cls-48, .cls-49, .cls-45, .cls-5, .cls-6, .cls-46, .cls-50, .cls-51, .cls-52, .cls-32, .cls-53, .cls-7, .cls-33, .cls-60, .cls-54, .cls-34, .cls-37, .cls-38, .cls-10, .cls-11 {
        stroke-miterlimit: 10;
      }

      .cls-57, .cls-43, .cls-58, .cls-41, .cls-60 {
        stroke-linecap: square;
      }

      .cls-57, .cls-20, .cls-7 {
        stroke-width: 2px;
      }

      .cls-57, .cls-60 {
        fill: #e4e5e6;
        stroke: #d1d3d4;
      }

      .cls-61 {
        clip-path: url(#clippath);
      }

      .cls-58 {
        stroke: #e6e7e8;
      }

      .cls-58, .cls-17, .cls-18, .cls-62 {
        fill: #414042;
      }

      .cls-16, .cls-17, .cls-18, .cls-19, .cls-41, .cls-21, .cls-47, .cls-59, .cls-48, .cls-27, .cls-49, .cls-5, .cls-6, .cls-28, .cls-46, .cls-50, .cls-51, .cls-52, .cls-29, .cls-30, .cls-31, .cls-33, .cls-54, .cls-42, .cls-9, .cls-35, .cls-37, .cls-38, .cls-40, .cls-11 {
        stroke-width: .5px;
      }

      .cls-41 {
        stroke: #414042;
      }

      .cls-63, .cls-24 {
        fill: #333132;
      }

      .cls-64 {
        fill: #393839;
      }

      .cls-21, .cls-54, .cls-40 {
        fill: #503e61;
      }

      .cls-3 {
        stroke: #bcbec0;
      }

      .cls-25, .cls-36 {
        stroke: #f1f2f2;
      }

      .cls-65 {
        clip-path: url(#clippath-1);
      }

      .cls-4, .cls-59, .cls-5, .cls-9, .cls-11 {
        stroke: #fee8aa;
      }

      .cls-4, .cls-45, .cls-8, .cls-10 {
        stroke-width: .25px;
      }

      .cls-47 {
        filter: url(#drop-shadow-4);
      }

      .cls-47, .cls-33, .cls-35 {
        fill: #87412a;
      }

      .cls-59 {
        fill: #745421;
      }

      .cls-49 {
        filter: url(#drop-shadow-3);
      }

      .cls-66 {
        filter: url(#drop-shadow-7);
      }

      .cls-6 {
        stroke: #feecbd;
      }

      .cls-28 {
        fill: #2e3192;
      }

      .cls-50 {
        fill: #bbb4b3;
      }

      .cls-51 {
        fill: #4c3794;
      }

      .cls-52 {
        fill: #4f4f51;
      }

      .cls-29 {
        fill: #7f3f98;
      }

      .cls-32 {
        stroke-width: 5px;
      }

      .cls-32, .cls-34, .cls-67 {
        fill: #808285;
      }

      .cls-33 {
        filter: url(#drop-shadow-2);
      }

      .cls-60 {
        stroke-width: 3px;
      }

      .cls-54 {
        filter: url(#drop-shadow-9);
      }

      .cls-34 {
        stroke-width: 6px;
      }

      .cls-35 {
        filter: url(#drop-shadow-5);
      }

      .cls-36, .cls-39 {
        stroke-width: .75px;
      }

      .cls-68 {
        filter: url(#drop-shadow-11);
      }

      .cls-69 {
        filter: url(#drop-shadow-10);
      }

      .cls-37 {
        filter: url(#drop-shadow-6);
      }

      .cls-38 {
        filter: url(#drop-shadow-1);
      }

      .cls-67 {
        opacity: .5;
      }

      .cls-40 {
        filter: url(#drop-shadow-8);
      }
    </style>
    <filter id="drop-shadow-1" filterUnits="userSpaceOnUse">
      <feOffset dx="3" dy="3"/>
      <feGaussianBlur result="blur" stdDeviation="2"/>
      <feFlood flood-color="#231f20" flood-opacity=".5"/>
      <feComposite in2="blur" operator="in"/>
      <feComposite in="SourceGraphic"/>
    </filter>
    <filter id="drop-shadow-2" filterUnits="userSpaceOnUse">
      <feOffset dx="3" dy="3"/>
      <feGaussianBlur result="blur-2" stdDeviation="2"/>
      <feFlood flood-color="#231f20" flood-opacity=".5"/>
      <feComposite in2="blur-2" operator="in"/>
      <feComposite in="SourceGraphic"/>
    </filter>
    <filter id="drop-shadow-3" filterUnits="userSpaceOnUse">
      <feOffset dx="3" dy="3"/>
      <feGaussianBlur result="blur-3" stdDeviation="2"/>
      <feFlood flood-color="#231f20" flood-opacity=".5"/>
      <feComposite in2="blur-3" operator="in"/>
      <feComposite in="SourceGraphic"/>
    </filter>
    <filter id="drop-shadow-4" filterUnits="userSpaceOnUse">
      <feOffset dx="3" dy="3"/>
      <feGaussianBlur result="blur-4" stdDeviation="2"/>
      <feFlood flood-color="#231f20" flood-opacity=".5"/>
      <feComposite in2="blur-4" operator="in"/>
      <feComposite in="SourceGraphic"/>
    </filter>
    <filter id="drop-shadow-5" filterUnits="userSpaceOnUse">
      <feOffset dx="3" dy="3"/>
      <feGaussianBlur result="blur-5" stdDeviation="2"/>
      <feFlood flood-color="#231f20" flood-opacity=".5"/>
      <feComposite in2="blur-5" operator="in"/>
      <feComposite in="SourceGraphic"/>
    </filter>
    <filter id="drop-shadow-6" filterUnits="userSpaceOnUse">
      <feOffset dx="3" dy="3"/>
      <feGaussianBlur result="blur-6" stdDeviation="2"/>
      <feFlood flood-color="#231f20" flood-opacity=".5"/>
      <feComposite in2="blur-6" operator="in"/>
      <feComposite in="SourceGraphic"/>
    </filter>
    <filter id="drop-shadow-7" filterUnits="userSpaceOnUse">
      <feOffset dx="3" dy="3"/>
      <feGaussianBlur result="blur-7" stdDeviation="2"/>
      <feFlood flood-color="#231f20" flood-opacity=".25"/>
      <feComposite in2="blur-7" operator="in"/>
      <feComposite in="SourceGraphic"/>
    </filter>
    <clipPath id="clippath">
      <polyline id="smallClippingPath" class="cls-1" points="100.93 73.73 99.94 73.74 91.99 73.71 91.42 77.23 92.86 78.15 99.97 77.49 99.95 73.78 100.54 72.64"/>
    </clipPath>
    <clipPath id="clippath-1">
      <polyline id="largeClippingPath" class="cls-1" points="103.61 73.82 121.65 73.82 120.61 76.46 107.17 79.15 104.42 77.8 104.46 73.83 103.91 72.45"/>
    </clipPath>
    <filter id="drop-shadow-8" filterUnits="userSpaceOnUse">
      <feOffset dx="3" dy="3"/>
      <feGaussianBlur result="blur-8" stdDeviation="2"/>
      <feFlood flood-color="#231f20" flood-opacity=".5"/>
      <feComposite in2="blur-8" operator="in"/>
      <feComposite in="SourceGraphic"/>
    </filter>
    <filter id="drop-shadow-9" filterUnits="userSpaceOnUse">
      <feOffset dx="3" dy="3"/>
      <feGaussianBlur result="blur-9" stdDeviation="2"/>
      <feFlood flood-color="#231f20" flood-opacity=".5"/>
      <feComposite in2="blur-9" operator="in"/>
      <feComposite in="SourceGraphic"/>
    </filter>
    <filter id="drop-shadow-10" filterUnits="userSpaceOnUse">
      <feOffset dx="2" dy="2"/>
      <feGaussianBlur result="blur-10" stdDeviation="1"/>
      <feFlood flood-color="#231f20" flood-opacity=".25"/>
      <feComposite in2="blur-10" operator="in"/>
      <feComposite in="SourceGraphic"/>
    </filter>
    <filter id="drop-shadow-11" filterUnits="userSpaceOnUse">
      <feOffset dx="3" dy="3"/>
      <feGaussianBlur result="blur-11" stdDeviation="2"/>
      <feFlood flood-color="#231f20" flood-opacity=".5"/>
      <feComposite in2="blur-11" operator="in"/>
      <feComposite in="SourceGraphic"/>
    </filter>
  </defs>
  <g id="Ani">
    <g id="tail">
      <polygon class="cls-38" points="163.95 169.07 168.77 178.26 170.86 218.66 162.53 208.14 166.69 213.4 166.69 235.92 159.34 227.88 160.76 269.84 153.9 262.78 153.06 298.28 87.81 299.26 95.38 294.55 27.02 296.12 38.78 288.87 13.88 287.89 25.64 280.34 3.09 278.47 98.4 269.84 131.52 265.92 134.34 236.51 135.66 247.88 137.13 234.16 139.97 215.33 143.94 224.35 138.4 193.76 143.11 197.87 134.34 175.92 163.95 169.07"/>
    </g>
    <g id="Body">
      <polyline class="cls-33" points="132.32 101.87 129.44 110.26 144.49 150.37 142.58 145.79 139.79 160.89 144.49 172.32 160.17 175.92 165.15 175.92 165.88 174.53 159.98 151.3 160.35 155.72 159.24 141.06 159.34 129.9 157.4 111 148.74 94.68 135.93 95.51"/>
      <g id="shirtText">
        <polyline class="cls-6" points="138.04 123.92 136.3 120.89 135.76 121.14 135.76 122.4 136.55 124.71 138.83 128.15 139.91 132.55 139.62 133.05 137.84 130.1 137.17 127.53"/>
        <polyline class="cls-6" points="138.87 120.22 140.91 128.32 142.73 133.75"/>
        <line class="cls-6" x1="142.73" y1="126.99" x2="140.91" y2="128.32"/>
        <polyline class="cls-6" points="140.16 118.15 142.48 126.99 145.06 133.46"/>
        <polyline class="cls-6" points="141.82 120.22 143.67 119.46 145.51 118.69"/>
        <line class="cls-6" x1="146.47" y1="132.47" x2="143.67" y2="119.46"/>
        <line class="cls-6" x1="145.51" y1="133.22" x2="148.42" y2="131.35"/>
        <polyline class="cls-6" points="149.83 132.47 147.26 119.1 147.51 118.15 148.92 119.23 149.58 121.14 149.17 122.42 148.25 122.84 151.74 132.47"/>
        <polyline class="cls-6" points="148.92 117.57 151.11 117.19 152.74 116.9"/>
        <polyline class="cls-6" points="154.64 133.22 152.53 126.97 151.11 117.19"/>
        <polyline class="cls-6" points="142.61 138.82 141.82 136.41 140.66 135.3 140.33 136.2 141.47 139.4 144.02 144.75 144.68 148.11 143.9 148.11 143.05 146.92"/>
        <polyline class="cls-6" points="146.97 148.11 145.06 143.18 143.73 138.24 143.02 135.58 143.44 134.83 144.68 136 144.68 137.82 143.73 138.24"/>
        <polyline class="cls-6" points="148.42 147.91 147.39 142.61 146.47 134.46 146.69 134.46 148.77 141.47 147.39 142.61"/>
        <line class="cls-6" x1="148.77" y1="141.47" x2="150.86" y2="148.44"/>
        <polyline class="cls-6" points="151.11 135.7 149.82 133.75 149.37 133.92 150.4 142.53 152 146.98 152.49 146.98 153.08 144.96"/>
        <polyline class="cls-6" points="154.84 134.46 152.19 134.65 153.3 141.18 154.84 147.25 156.77 147.14"/>
        <line class="cls-6" x1="154.95" y1="137.28" x2="152.88" y2="138.2"/>
      </g>
      <g id="fretArm">
        <g id="fretUpper">
          <g id="Layer_18" data-name="Layer 18">
            <polygon class="cls-49" points="166.7 115.76 173.7 139.87 180.47 157.29 183.32 170.04 174.38 169.07 164.67 141.18 158.95 116.9 161.73 113.68 166.7 115.76"/>
          </g>
          <polyline class="cls-47" points="145.26 95.31 155.37 92.08 163.66 101.39 163.82 106.97 164.14 104.71 167.61 108.87 167.09 112.11 168.42 118.01 163.08 116.01 157.47 122.02 157.65 117.25 158.88 119.13 154.23 111.59 157.79 114.91 152.61 110.24 152.08 103.21 152.37 107.05 149.33 100.7 148.52 100.37"/>
        </g>
        <polyline id="fretFore" class="cls-48" points="179.83 169.58 174.58 169.35 159.72 152.58 142.14 128.39 150.81 125.51 164.32 144.35 177.88 157.9"/>
      </g>
      <g id="strumArm">
        <polygon class="cls-15" points="76.74 136.38 113.5 118.67 114.13 111.09 107.82 110.57 68.66 125.68 27.79 122.48 29.55 131.97 76.74 136.38"/>
        <polygon class="cls-35" points="137.64 95.6 125.11 94 120.19 100.47 117.32 101.43 123.12 99.81 116.9 101.4 114.11 104.88 115.93 102.61 112.14 103.81 107.82 110.57 114.13 111.09 113.5 118.67 126.61 110.12 127.1 106.57 130.82 104.64 138.35 105.28 137.64 95.6"/>
      </g>
      <g id="Neck">
        <polygon class="cls-37" points="147.11 100.99 145.18 96.33 136.74 92.99 128.42 88.55 118.82 81.83 111.76 85.28 116.42 90.55 119.18 91.46 128.05 94.62 127.82 94.66 126.97 94.39 128.41 96.59 134.84 98.87 138.76 101.05 138.24 100.91 136.6 100.11 137.73 101.55 139.55 102.3 141.62 102.33 144.1 101.72 146.75 101.16 147.11 100.99"/>
      </g>
      <g id="Head">
        <g id="HeadGroup" class="cls-66">
          <polygon id="headBackplate" class="cls-56" points="116.86 56.6 145.7 65.12 137.57 69.97 132.58 77.04 115.21 64.15 116.86 56.6"/>
          <g id="exposedEar">
            <polyline class="cls-48" points="117.6 56.06 172.59 57.14 135.25 74.43 167.92 59.07 132.82 61.12 129.53 63.4 126.07 65.8"/>
            <polygon class="cls-50" points="129.73 63.45 133.76 62.95 131.8 65.34 134.78 63.44 131.66 72.41 134.37 69.31 128.99 78.24 135.25 74.43 167.27 59.28 132.82 61.12 129.73 63.45"/>
          </g>
          <g id="coveredEar">
            <polyline class="cls-48" points="100.22 64.1 97.38 61.65 94.68 59.32 65.48 56.69 92.44 72.58 61.63 54.68 107.44 54.51"/>
            <polygon class="cls-50" points="97.22 61.7 93.87 61.13 95.46 63.55 93.01 61.6 95.46 70.62 93.25 67.48 101.54 77.43 92.44 72.58 66.02 56.91 94.68 59.32 97.22 61.7"/>
          </g>
          <g id="headBaseShape">
            <polyline class="cls-48" points="129.24 74.43 144.94 74.46 136.37 78.25 144.01 76.61 131.33 81.84 140.11 80.1 126.61 87.6 135.62 85.29 116.11 91.94 109.06 91.54 87.42 93.96 77.49 84.43 76.38 82.15 80.4 77.4 88.47 78.39 90.87 78.19 99.97 77.47 91.26 78.03 92.04 73.3 91.08 66.35 93.07 60.68 97.78 55.72 107.12 54.43 116.77 55.77"/>
            <polygon class="cls-48" points="91.82 72.83 85.26 72.59 90.33 75.58 86.25 75.13 90.58 77.62 87.5 77.1 89.76 78.26 91.1 78.05 91.88 73.3 91.82 72.83"/>
          </g>
          <g id="Nose">
            <polygon class="cls-28" points="80.71 82.56 79.44 80.21 81.13 79.52 84.32 79.09 86.31 80.73 80.71 82.56"/>
            <polyline class="cls-55" points="81.42 79.73 85.58 80.48 84.25 79.34"/>
          </g>
          <g id="smallEyeClip">
            <g class="cls-61">
              <g id="smallEye">
                <polygon class="cls-27" points="96.65 76.37 96.02 73.65 101.55 74.96 96.65 76.37"/>
                <polyline class="cls-31" points="96.02 73.65 101.79 73.72 101.55 74.96"/>
              </g>
            </g>
          </g>
          <g id="largeEyeClip">
            <g class="cls-65">
              <g id="largeEye">
                <polygon class="cls-44" points="113.06 76.53 111.97 73.81 121.44 75.15 113.06 76.53"/>
                <polyline class="cls-31" points="111.97 73.81 121.84 73.91 121.44 75.15"/>
              </g>
            </g>
          </g>
          <polyline id="largeEyeHole" class="cls-10" points="103.61 73.82 121.65 73.82 120.61 76.46 107.17 79.15 104.42 77.8 104.46 73.83 103.91 72.45"/>
          <polyline id="smallEyeHole" class="cls-8" points="100.93 73.68 99.94 73.69 91.99 73.66 91.42 77.18 92.86 78.1 99.97 77.43 99.95 73.73 100.54 72.58"/>
          <g id="Hair">
            <path id="Hair-2" data-name="Hair" class="cls-51" d="m115.78,57.91l-30.5,9.36-17.17,6.16,11.57-8.14,11.95-5.92c-.08-.2-27,8.77-27,8.77l-19.79,7.63-17.84,8.07,14.61-12.04,19.45-12.37,16.41-9.02-21.83,5.95-20.21,7.93s-11.52,5.39-11.21,5.29,10.34-9.32,10.34-9.32l9.89-6.55,13.41-8.14-23.09,5.47-11.31,3.64-6.36,2.23,6.11-4,13.59-6.58,27.14-10.38s-23.64,6.43-24.01,6.52-19.47,7.61-19.47,7.61l14.31-11.13,22.09-8.32-14.68.91-17.21,4.23s15.4-9.07,15.72-9.48,14.82-5,14.82-5l16.66-2.67,12.53.71-20.35-2.61-12.34.44,13.12-3.56,19.15-.96,21.37,4.3-10.13-7.68-11.71-6.87,14.48,3.25,16.18,8.71,6.71,5.85-4.55-9.9S108.12.04,108.64.25s11.68,8.44,11.78,8.86,7.52,14.12,7.52,14.12l2.69,8.4s1.31-10.33,1.21-10.75-.94-7.02-.94-7.02c0,0,3.9,8.29,4,8.62s-.49,11.06-.49,11.06l-4.7,12.29,7.55-9.02,4.77-10.03-2.84,9.95-8.67,11.47,9.73-3.72,8.99-4.27-7.3,6.34s-13.11,6.89-12.57,6.69,8.46-.15,8.46-.15l11.46-1.34s-10.19,2.5-10.42,2.49-13.68,2.67-13.68,2.67l-8.07,2.53-9.52,2.89,8.16-4.43Z"/>
            <line class="cls-7" x1="46.83" y1="71.76" x2="74.8" y2="55.35"/>
            <line class="cls-7" x1="42.5" y1="57.29" x2="57.9" y2="49.1"/>
            <line class="cls-7" x1="39.92" y1="46.86" x2="55.74" y2="41.35"/>
            <line class="cls-7" x1="84.68" y1="65.41" x2="93.01" y2="61.6"/>
            <line class="cls-7" x1="46.61" y1="37.01" x2="55.72" y2="34.47"/>
          </g>
        </g>
        <polygon class="cls-56" points="100.13 73.58 104.33 73.72 103.71 72.21 100.74 72.41 100.13 73.58"/>
      </g>
    </g>
    <g id="mobileThigh">
      <polyline class="cls-40" points="54.89 157.46 124.74 164.53 115.1 178.11 107.22 175.63 60.62 178.11"/>
    </g>
    <g id="immobleLeg">
      <polygon id="leftLeg" class="cls-54" points="110 263.94 128.25 268.38 136.61 194.69 136.18 184.89 132.65 178.89 131.49 176.92 126.12 167.8 132.96 178.79 156.28 179.16 163.26 176.22 164.32 172.56 117.82 147.91 104.36 160.72 110 263.94"/>
      <g id="leftFoot">
        <polygon class="cls-19" points="113.17 260.45 104.36 258.14 95.38 269.46 101.53 300.99 106.03 306.81 114.6 307.69 113.17 260.45"/>
        <polygon class="cls-19" points="131.52 253.75 118.23 250.67 113.17 260.45 114.6 307.69 119.66 310 131.52 308.13 137.13 269.68 131.52 253.75"/>
        <polygon class="cls-19" points="141.08 249.79 132.08 255.32 137.13 269.68 131.52 308.13 138.44 308.9 143.94 308.35 150.97 282.92 153.06 266.27 147.45 257.04 141.08 249.79"/>
        <polygon class="cls-19" points="155.25 254.19 147.45 257.04 153.06 266.27 150.97 282.92 143.94 308.35 151.3 308.9 157.78 306.92 165.47 269.02 160.53 260.45 155.25 254.19"/>
      </g>
    </g>
    <g id="Guitar">
      <g id="GuitarBody" class="cls-69">
        <polygon class="cls-20" points="70.21 146.05 41.06 146.05 41.06 112.88 80.47 110.73 70.21 146.05"/>
        <g>
          <g>
            <path class="cls-18" d="m55.52,101.35c-1.01-.42-3.18-.92-4.27-.87-1.17.05-3.5.72-4.51,1.32s-2.7,2.4-3.38,3.38c-.85,1.22-1.93,4.02-2.48,5.4-1.1,2.76-3.05,8.39-3.83,11.26s-1.93,8.94-2.48,11.93c-.65,3.56-1.69,10.59-2.17,14.32-.4,3.14-1.47,9.46-1.13,12.61.14,1.29.9,3.84,1.58,4.95.37.61,1.35,1.8,2.03,2.03,1.18.4,3.77-.28,4.95-.68,1.1-.37,3.13-1.56,4.05-2.25,2.1-1.58,5.33-5.06,7.57-6.44.77-.48,2.47-1.29,3.38-1.35.46-.03,1.39.23,1.8.45,1.01.55,2.43,2.48,3.38,3.15,1.19.84,3.75,2.39,5.18,2.7.99.21,3.13.19,4.05-.23.73-.32,1.88-1.55,2.25-2.25.43-.81.75-2.69.68-3.6-.05-.66-.4-2.05-.9-2.48-.87-.75-3.41-.55-4.5-.9-.65-.21-1.94-.71-2.48-1.13-.57-.44-1.44-1.63-1.8-2.25-.53-.89-1.41-2.81-1.58-3.83-.16-.95-.13-2.94.23-3.83.32-.82,2.25-2.7,2.25-2.7l2.25-3.49-5.63,1.01-.45,1.58-1.33.75-1.34-.89-.22,1.19-.97,1.12-.52-.15-.37-.67v-20.17l.6-1.19,1.04-.89.37.15.45-.22.89-1.41.89-.67.82.07,1.04.3.37,1.71,11.01-2.46-.97-2.16.22-2.53s.73-2.39,1.12-3.13c.27-.51.98-1.42,1.34-1.86.52-.64,1.67-1.85,2.23-2.46.53-.56,1.51-1.73,2.16-2.25.03-.02.05-.04.07-.06.57-.43,1.86-.97,2.53-1.34s3.93-2.2,4.47-2.46c.37-.18,2.75-1.41,2.98-1.41s1.64-.45,1.86-.67,1.04-1.64,1.12-1.86-.06-1.66-.37-2.08c-.23-.32-.96-.71-1.34-.82-.59-.17-1.85-.08-2.46,0-.76.1-2.25.55-2.98.82s-2.2.96-2.9,1.34c-.4.22-3.2,1.94-3.57,2.16s-1.55.83-2.01,1.19c-.41.32-.6.6-1.56,1.34s-2.12,2.07-2.83,2.75c-.55.53-1.71,1.53-2.31,2.01-.41.33-1.26.99-1.71,1.27-.37.22-1.16.58-1.56.74-.26.11-.79.26-1.04.37s-.67.37-.97.45-1.83-.13-2.38-.37-1.42-1.11-1.94-1.41c-.78-.46-2.47-1.15-3.27-1.56-.18-.09-.52-.32-.71-.39Z"/>
            <path class="cls-67" d="m36.94,161.22l.27-1.96.53,2.14.36-2.76.45,3.56.27-4.1.89,2.85s-.09-1.43,0-1.69.8.89.8.89l-.09-3.92.53,3.03.09-4.28s.45,3.21.53,3.48.27-4.28.27-4.28c0,0,.8,3.39.89,3.83s.18-3.03.45-2.67.89,2.23.89,2.23l.45-2.58.53,1.69.71-2.32.89,1.34.53-2.76.8,2.85s-.18-5.53.18-5.35,2.05,3.21,2.05,3.21l.18-2.14.53,2.5.27-1.43.45,1.16.45-2.94.98,2.41.18-1.78.71,1.43.36-1.87.53,1.43.62-2.23.89,2.14.36-2.05.71,2.76.18-1.78.89,3.39s-.62-5.35.09-3.21,1.87,4.9,1.87,4.9c0,0-.09-2.5.09-2.05s1.69,4.1,1.69,4.1v-2.14l.71,1.78.09-2.23-2.76-6.59.62.8-1.16-4.63.45-3.21,1.52-3.65.06-.98-1.58.3s-.48,1.58-.51,1.67-1,.62-1.37.6-1.31-.69-1.31-.69c0,0,.14,1.14-.04,1.46-.16.28-.77.69-1.09.72-.23.02-.69-.18-.86-.33-.14-.12-.36-.63-.36-.63l.32-19.94s-.05-1.06.13-1.29c.29-.37.83-1.26,1.28-1.37.07-.02.2.09.27.09.17.01.47-.18.61-.28.47-.35.83-1.27,1.32-1.6.14-.09.72-.2.88-.2s.44,0,.59.05c.25.07.81.08.98.27.28.29.36,1.55.36,1.55l8.14-1.76-.03-3.94.21,1.46.6-4.14.09,1.79,1.31-3.07-.03,1.28,4.53-8.71.33-1.01-1.34,1.25-.12-.83-2.53,4v-1.49l-2.09,2.5-.42-.12-2.36,3.31-.24-1.43s-1.7,1.67-1.76,1.76-.3-.81-.3-.81l-1.49,1.73.09-1.07-.83,1.04-.15-1.55-.48.66-.24-.92-.51.66-1.58,1.1-.09-.95-.57.57-.24-1.01-.95.92-.09-1.19-.6.81-.42-1.28-.57.81-.39-.95-.27.6-.27-.92-.63.69.09-1.04-1.31,1.4-.06-1.91-.36.98-.81-1.37-.27,1.16-1.13-1.4-.63,1.01-.72-1.28s-.39.92-.39,1.04-.54-1.79-.54-1.79l-.69,2.62-.6-1.94-.78,1.58-.3-1.25-.92,1.49-.15-.6s-1.01,1.85-1.07,2-1.43,4.17-1.43,4.17l.72-3.76-2.06,6.89-.09-2.47-2,7.22-.24-.69-1.19,5.64-1.82,11.54-.15-5.46-1.94,9.48-.18,6.17.69-.98-.75,8.47.66-.86-.51,5.34,1.16-2.09v3.85l.72-1.85.24,2.98.21-2.03.39,1.31Z"/>
            <line class="cls-3" x1="36.63" y1="153.8" x2="38.49" y2="142.88"/>
            <line class="cls-3" x1="38.1" y1="155.02" x2="39.44" y2="145.56"/>
            <path class="cls-3" d="m47.05,150.74c.13-.38,1.66-7.16,1.66-7.16"/>
            <line class="cls-3" x1="44.3" y1="147.86" x2="45.13" y2="143.26"/>
            <line class="cls-3" x1="42.58" y1="147.54" x2="43.85" y2="140.96"/>
            <line class="cls-3" x1="51.2" y1="149.91" x2="53.76" y2="139.23"/>
            <line class="cls-3" x1="35.04" y1="145.75" x2="36.76" y2="136.36"/>
            <line class="cls-3" x1="42.45" y1="119.55" x2="45.2" y2="108.69"/>
            <line class="cls-3" x1="46.54" y1="119.23" x2="47.82" y2="112.97"/>
            <line class="cls-3" x1="51.14" y1="118.85" x2="54.33" y2="107.86"/>
            <line class="cls-3" x1="49.09" y1="116.04" x2="50.63" y2="109.14"/>
            <line class="cls-3" x1="46.79" y1="110.48" x2="45.51" y2="113.99"/>
            <line class="cls-3" x1="55.16" y1="117.25" x2="57.27" y2="109.27"/>
            <line class="cls-3" x1="58.68" y1="115.02" x2="59.25" y2="111.31"/>
            <line class="cls-3" x1="62.38" y1="116.29" x2="63.98" y2="110.42"/>
            <line class="cls-3" x1="66.92" y1="115.4" x2="69.61" y2="107.35"/>
            <line class="cls-3" x1="55.61" y1="148.5" x2="57.34" y2="140.9"/>
            <line class="cls-3" x1="53.12" y1="148.31" x2="54.14" y2="144.35"/>
            <line class="cls-3" x1="49.73" y1="146.71" x2="50.63" y2="142.37"/>
            <line class="cls-3" x1="45.9" y1="148.56" x2="46.41" y2="146.46"/>
            <line class="cls-3" x1="40.91" y1="146.26" x2="41.43" y2="143.13"/>
            <line class="cls-3" x1="35.67" y1="148.31" x2="36.44" y2="144.47"/>
            <line class="cls-3" x1="44.49" y1="119.94" x2="45.07" y2="117.32"/>
            <line class="cls-3" x1="50.12" y1="118.08" x2="51.27" y2="112.52"/>
            <line class="cls-3" x1="53.69" y1="116.81" x2="54.59" y2="112.4"/>
            <line class="cls-3" x1="60.6" y1="113.74" x2="61.17" y2="110.35"/>
            <line class="cls-3" x1="64.81" y1="115.72" x2="65.32" y2="111.95"/>
          </g>
          <path class="cls-16" d="m54.01,100.83s2.49.58,3.3.81c.87.25,2.63.72,3.43,1.14s2.81,2.11,2.81,2.11l-2.11-.18s-.94-1.05-1.32-1.32c-.76-.54-2.48-1.27-3.34-1.63-.68-.28-2.78-.94-2.78-.94Z"/>
          <path class="cls-42" d="m90.02,90.78s5,1.15,6.3,2.2c.8.64,2.05,2.48,2.14,3.5.08.96-.89,2.77-1.43,3.56-.84,1.25-4.34,4.16-4.34,4.16,0,0-4.54,2.92-5.7,4.28-.76.88-2.2,4.1-2.2,4.1l-10.75,2.67,1.78-2.32s1.5-2.61,1.78-3.56c.19-.66.22-2.07.42-2.73.31-1.02,1.29-2.92,1.78-3.86.46-.88,1.52-2.6,2.26-3.27.64-.59,3.04-1.71,3.04-1.71l3.36-1.71s1.56-.57,2.14-1.27c1.37-1.62.9-2.85.46-3.35-.21-.23-1.05-.69-1.05-.69Z"/>
          <path class="cls-64" d="m72.22,115.47s-.74-1.48-.79-2.06c-.06-.62.14-1.88.29-2.49.2-.81.74-2.39,1.14-3.12s1.97-2.62,1.97-2.62l3.67-3.89,3.58-2.06-1.49,2.02s-1.47,2.47-1.89,3.32c-.25.49-.68,1.51-.82,2.05-.07.26-.13.8-.16,1.06-.06.47-.07,1.43-.19,1.89-.08.29-.55,1.04-.55,1.04l-1.41,2.34-1.52,1.97-.72.4-1.1.16Z"/>
          <path class="cls-55" d="m75.5,112.39c-.22.05-.8-.43-.8-.43,0,0-.54-.5-.45-.69.1-.21.93-.13.93-.13,0,0,.65-.1.77.05.11.14-.11.69-.11.69,0,0-.2.47-.35.51Z"/>
          <path class="cls-44" d="m35.68,167.95s8.36,1.34,10.8,1.09c1.42-.15,4.11-1.22,5.43-1.75,1.66-.67,5-2.07,6.44-3.13.81-.59,2.85-2.85,2.85-2.85,0,0-.91-.53-1.18-.74-.61-.49-1.61-1.71-2.22-2.2-.34-.27-1.08-.74-1.47-.92-.35-.16-1.1-.52-1.48-.48-.8.07-2.35.92-3.08,1.26-.64.3-2.53,2.02-2.55,2.07l-3.37,3.04-1.94,1.42-4.05,2.25-4.16.95Z"/>
          <path class="cls-44" d="m69.25,163.04s1.86-1.56,2.25-2.25c.46-.8.7-2.69.68-3.6-.02-.73-.52-2.21-1.16-2.7-.42-.32-2.18-.54-2.18-.54l-3.86-1.75s-.31-1.65-.28-2.21c.1-1.56,1.68-4.51,1.56-6.07-.09-1.32-2.11-3.56-2.02-4.88.05-.71,1.41-2.45,1.41-2.45l10.74-2.15s-1.3,3.64-1.66,4.88-.91,3.84-1.01,5.15-.04,3.95.18,5.25c.17.95.58,2.94,1.2,3.68s2.5,1.49,3.4,1.84c.6.23,1.96.27,2.48.64.47.34,1.19,1.36,1.29,1.93.14.77-.3,2.39-.74,3.04-.47.71-1.95,1.75-2.76,2.02-2.26.76-9.53.17-9.53.17Z"/>
          <path class="cls-63" d="m67.65,153.85c.34.07,1.4.1,1.4.1l-3.95-1.79-.32-2.39,1.08-3.69s.62-1.94.53-2.59c-.15-1.08-1.99-3.89-1.99-3.89l-.08-.87s-1.21,1.57-1.61,2.16c-.27.39-1.14,1.48-1.14,1.48,0,0-.44,1.06-.52,1.41-.15.64-.05,2.1.07,2.75.18.98,1.29,3.66,1.29,3.66,0,0,1.41,1.95,2.05,2.41.7.49,2.36,1.08,3.2,1.25Z"/>
          <path class="cls-55" d="m65.06,144.38c-.53.41-2.69.13-2.69.13,0,0-.66-.18-.76-.37-.08-.15-.05-.54.07-.66.1-.11.42-.14.56-.17.54-.08,1.65-.14,2.19-.03.23.04.75.16.86.37.01.02,0,.04-.01.09-.03.18-.1.55-.22.64Z"/>
        </g>
        <line class="cls-32" x1="45.28" y1="142.02" x2="45.95" y2="123.3"/>
        <line class="cls-32" x1="47.18" y1="140.06" x2="47.85" y2="121.34"/>
        <line class="cls-34" x1="58.13" y1="138.55" x2="58.69" y2="117.32"/>
        <line class="cls-34" x1="55.78" y1="140.17" x2="56.34" y2="120"/>
        <line class="cls-57" x1="45.28" y1="141.35" x2="45.89" y2="123.69"/>
        <line class="cls-57" x1="47.15" y1="139.48" x2="47.76" y2="121.82"/>
        <line class="cls-60" x1="55.72" y1="140.17" x2="56.34" y2="120.28"/>
        <line class="cls-60" x1="58.04" y1="137.97" x2="58.66" y2="118.08"/>
        <polygon class="cls-58" points="176.01 114 176.01 91.66 181.83 90.16 187.46 87.34 194.6 82.46 196.1 80.02 209.42 81.9 222.56 82.46 240.21 82.46 254.1 81.52 262.54 80.77 265.36 81.15 269.68 83.4 287.51 95.04 274.56 98.98 238.33 108.74 213.37 115.69 191.78 122.26 187.84 118.13 182.58 115.69 176.01 114"/>
        <polygon class="cls-43" points="198.73 126.2 192.5 122.67 288.31 95.58 289.2 99.73 198.73 126.2"/>
        <path class="cls-41" d="m205.33,120.47c-.13.71.54,2.82.54,2.82l-1.95.54.87,3.26,2.39,1.09,3.36-.65,1.19-1.95-.87-2.93-1.84-.54-.98-2.93-1.63-.43s-.99,1.23-1.09,1.74Z"/>
        <polygon class="cls-41" points="225.08 123.83 223.34 123.51 222.58 120.58 223.34 118.51 224.75 117.1 223.56 113.96 225.73 113.31 226.49 113.42 227.79 116.89 230.4 117.54 231.59 120.47 230.29 121.99 227.57 123.07 225.08 123.83"/>
        <polygon class="cls-41" points="248.3 118.51 244.5 117.76 243.31 114.39 245.04 112.76 245.91 112.33 244.83 108.42 246.02 107.99 248.52 107.45 249.71 110.27 252.75 112.44 253.4 115.59 252.31 117 248.3 118.51"/>
        <polygon class="cls-41" points="270.65 112.87 268.7 106.58 268.59 105.06 267.83 102.35 269.56 101.15 270.76 101.26 272.39 104.19 272.93 104.95 274.12 112.33 272.28 113.09 270.65 112.87"/>
        <polygon class="cls-41" points="205.01 81.08 206.74 76.31 208.26 76.31 209.78 76.96 208.91 81.41 205.01 81.08"/>
        <polyline class="cls-41" points="217.05 81.62 216.51 80.76 217.48 78.37 220.52 77.28 223.34 77.72 225.84 79.02 225.4 81.73 216.62 81.62"/>
        <polygon class="cls-41" points="231.59 81.84 232.13 78.48 235.28 77.28 240.05 78.15 241.79 80.11 241.57 81.73 231.59 81.84"/>
        <polygon class="cls-41" points="251.44 80.86 251.88 76.52 254.05 76.2 255.24 76.85 256 77.83 255.89 80.76 251.44 80.86"/>
        <line class="cls-36" x1="206.42" y1="126.98" x2="205.22" y2="124.05"/>
        <line class="cls-36" x1="224.32" y1="123.29" x2="223.45" y2="119.82"/>
        <line class="cls-36" x1="245.48" y1="117.1" x2="244.39" y2="113.96"/>
        <line class="cls-36" x1="272.39" y1="112.33" x2="270.76" y2="105.06"/>
        <line class="cls-36" x1="252.64" y1="80.21" x2="252.86" y2="76.85"/>
        <line class="cls-36" x1="232.78" y1="80.97" x2="233.11" y2="78.59"/>
        <line class="cls-36" x1="218.13" y1="80.86" x2="218.79" y2="78.37"/>
        <line class="cls-36" x1="206.53" y1="80.76" x2="207.28" y2="76.74"/>
        <polygon class="cls-59" points="60.53 118.64 59.89 120 59.41 130.8 60.02 137.6 60.81 137.43 120.38 125.04 175.98 113.6 175.58 91.44 60.53 118.64"/>
        <path class="cls-11" d="m60.94,137.3c.24-.08.15-18.73.15-18.73"/>
        <line class="cls-11" x1="62.19" y1="137.14" x2="62.21" y2="118.24"/>
        <line class="cls-11" x1="63.57" y1="136.83" x2="63.49" y2="118"/>
        <line class="cls-11" x1="65.06" y1="136.42" x2="65.25" y2="117.44"/>
        <line class="cls-11" x1="66.61" y1="136.16" x2="67.01" y2="117.04"/>
        <line class="cls-11" x1="68.45" y1="135.76" x2="68.85" y2="116.72"/>
        <line class="cls-11" x1="70.45" y1="135.44" x2="70.93" y2="116.08"/>
        <line class="cls-11" x1="72.45" y1="134.96" x2="72.93" y2="115.6"/>
        <line class="cls-11" x1="74.69" y1="134.4" x2="75.17" y2="115.04"/>
        <line class="cls-11" x1="77.09" y1="134.08" x2="77.57" y2="114.48"/>
        <line class="cls-11" x1="79.57" y1="133.6" x2="80.37" y2="113.68"/>
        <line class="cls-11" x1="82.37" y1="132.96" x2="83.57" y2="113.12"/>
        <line class="cls-11" x1="85.49" y1="132.24" x2="86.85" y2="112.24"/>
        <line class="cls-11" x1="88.93" y1="131.44" x2="90.21" y2="111.6"/>
        <line class="cls-11" x1="92.61" y1="130.88" x2="94.37" y2="110.56"/>
        <line class="cls-11" x1="96.69" y1="129.92" x2="98.7" y2="109.52"/>
        <line class="cls-11" x1="101.42" y1="128.96" x2="103.58" y2="108.4"/>
        <line class="cls-11" x1="106.3" y1="128" x2="109.02" y2="107.12"/>
        <line class="cls-11" x1="111.9" y1="126.72" x2="115.1" y2="105.68"/>
        <line class="cls-11" x1="118.14" y1="125.68" x2="121.42" y2="104.32"/>
        <line class="cls-11" x1="125.34" y1="124" x2="129.34" y2="102.32"/>
        <line class="cls-11" x1="132.62" y1="122.56" x2="138.06" y2="100.16"/>
        <line class="cls-11" x1="142.14" y1="120.4" x2="147.82" y2="97.76"/>
        <line class="cls-11" x1="152.22" y1="118.32" x2="159.34" y2="94.96"/>
        <path class="cls-46" d="m75.5,135.65l102.82-20.53-2.82-.99-99.24,20.54c-.46.09-.78.51-.76.98h0Z"/>
        <polygon class="cls-46" points="165.71 114.86 173.59 90.54 176.01 91.66 167.89 115.54 165.71 114.86"/>
        <polygon class="cls-45" points="165.71 116.08 163.95 114.72 165.71 114.86 167.75 116.08 165.71 116.08"/>
        <polygon class="cls-52" points="171.69 91.36 163.95 114.72 165.71 114.86 173.59 90.54 171.69 91.36"/>
        <g>
          <path class="cls-44" d="m45.21,153.31l-3.5-.42s.79-.55.96-.82c.33-.49.78-1.67.72-2.26-.03-.35-.67-1.25-.67-1.25,0,0,2.14-.05,2.74.29.26.15.62.68.72.96.12.32.16,1.01.1,1.35-.11.62-1.03,2.09-1.03,2.09"/>
          <path class="cls-62" d="m41.66,152.94c-.26-.07-.61-.6-.67-.87-.09-.39-.12-1.21,0-1.59s.52-1.05.77-1.35c.18-.21.69-.64.96-.58.35.08.6.9.67,1.25.13.63-.19,1.99-.58,2.5-.2.26-.84.71-1.15.63Z"/>
          <line class="cls-17" x1="43.68" y1="151.26" x2="43.72" y2="150.68"/>
          <path class="cls-17" d="m41.42,152.56s-.22-.61-.24-.82c-.03-.24.03-.73.1-.96.09-.34.58-1.3.58-1.3"/>
        </g>
        <g>
          <path class="cls-44" d="m34.92,154.28l-3.07-.46s.71-.5.86-.73c.3-.44.7-1.5.65-2.03-.03-.32-.6-1.12-.6-1.12,0,0,1.92-.05,2.46.26.23.13.55.61.65.86.11.28.14.91.09,1.21-.1.56-.95,2.07-.95,2.07"/>
          <path class="cls-62" d="m31.82,153.87c-.24-.07-.55-.54-.6-.78-.08-.35-.1-1.09,0-1.43s.47-.95.69-1.21c.16-.19.62-.57.86-.52.31.07.54.81.6,1.12.11.57-.17,1.79-.52,2.25-.18.23-.75.64-1.04.56Z"/>
          <line class="cls-17" x1="33.63" y1="152.36" x2="33.67" y2="151.84"/>
          <path class="cls-17" d="m31.6,153.52s-.19-.54-.22-.73c-.03-.22.03-.65.09-.86"/>
        </g>
        <g>
          <path class="cls-23" d="m39.16,160.07c-.14.03-.43-.13-.55-.22-.18-.13-.44-.51-.5-.72-.11-.36-.03-1.13.04-1.49.08-.41.31-1.25.59-1.56.1-.11.38-.27.53-.24.21.04.51.42.61.61.11.21.12.71.13.94.02.33.01,1.01-.04,1.34-.03.18-.22.7-.22.7,0,0-.38.59-.59.64Z"/>
          <path class="cls-23" d="m39.1,157.13c-.4-.61-1.88-1.14-2.57-1.38-.15-.05-.46-.14-.61-.11-.17.03-.49.23-.59.37-.08.11-.12.37-.13.5-.01.19,0,.59.11.75.06.08.26.16.35.2.41.16,1.73.4,1.73.4,0,0,.75.24,1.01.24.18,0,.58-.03.68-.18.12-.16.13-.63.02-.79Z"/>
          <polygon class="cls-14" points="35.61 156.69 35.87 156.1 35.43 156.43 35.61 156.69"/>
          <line class="cls-22" x1="36.53" y1="156.45" x2="37.05" y2="156.62"/>
          <polyline class="cls-12" points="39.23 158.2 39.25 157.46 39.62 158.36 39.73 157.5"/>
        </g>
        <polygon class="cls-13" points="46.12 122.52 46.87 122.48 46.99 123.11 46.12 122.52"/>
        <path class="cls-13" d="m47.7,120.6c-.04-.59,1.64-1.07,2.21-.9.13.04.39.22.39.36.17,5.94.13,14.71.07,19.63,0,.53-.66,1.53-1.11,1.8-.29.18-1.04.2-1.38.11-.43-.11-1.49-.99-1.49-.99,0,0,1.5.9,1.65,1.42.08.28-.18.87-.36,1.1-.16.2-.62.5-.87.51-.41.01-1.45-.75-1.45-.75l.87-.35-.11-2.2,2.01.21.04-19.82s-.46,0-.47-.12Z"/>
        <g>
          <ellipse class="cls-23" cx="38.28" cy="125.09" rx=".71" ry=".88"/>
          <ellipse class="cls-23" cx="38.43" cy="127.04" rx=".76" ry=".9"/>
          <ellipse class="cls-23" cx="38.54" cy="129.08" rx=".78" ry=".94"/>
          <ellipse class="cls-23" cx="38.66" cy="131.09" rx=".88" ry="1.02"/>
          <ellipse class="cls-23" cx="38.77" cy="133.3" rx=".83" ry="1.02"/>
          <ellipse class="cls-23" cx="38.85" cy="135.41" rx=".81" ry=".97"/>
          <ellipse class="cls-23" cx="38.89" cy="137.6" rx=".83" ry="1.02"/>
          <ellipse class="cls-23" cx="38.98" cy="139.99" rx=".93" ry="1.07"/>
          <polygon class="cls-13" points="38.9 124.45 38.8 124.08 41.88 123.18 42.83 123.35 42.62 125.35 42.75 125.42 42.41 127.42 42.78 127.49 42.53 129.72 42.97 129.79 42.52 132.13 43.13 132.26 42.78 134.33 43.06 134.36 42.84 136.4 43.42 136.57 43.07 138.87 43.44 139.14 43.3 141.21 40.55 141.74 38.86 141.06 39.57 140.79 38.9 124.45"/>
          <line class="cls-2" x1="38.6" y1="140.25" x2="39.91" y2="139.99"/>
          <line class="cls-2" x1="38.82" y1="138.06" x2="39.6" y2="137.91"/>
          <line class="cls-2" x1="38.66" y1="135.74" x2="39.53" y2="135.65"/>
          <line class="cls-2" x1="38.45" y1="133.68" x2="39.5" y2="133.5"/>
          <line class="cls-2" x1="38.45" y1="131.4" x2="39.35" y2="131.25"/>
          <line class="cls-2" x1="39.31" y1="129.08" x2="38.54" y2="129.08"/>
          <line class="cls-2" x1="38.43" y1="127.04" x2="39.19" y2="127.04"/>
          <line class="cls-2" x1="38.28" y1="125.09" x2="39.2" y2="124.86"/>
          <ellipse class="cls-14" cx="37.73" cy="125.07" rx=".09" ry=".15"/>
          <ellipse class="cls-14" cx="37.81" cy="127.08" rx=".1" ry=".18"/>
          <ellipse class="cls-14" cx="37.9" cy="129.09" rx=".07" ry=".15"/>
          <ellipse class="cls-14" cx="37.81" cy="131.4" rx=".07" ry=".15"/>
          <ellipse class="cls-14" cx="37.94" cy="133.59" rx=".03" ry=".12"/>
          <ellipse class="cls-14" cx="38.11" cy="135.56" rx=".04" ry=".12"/>
          <ellipse class="cls-14" cx="38.12" cy="137.98" rx=".06" ry=".1"/>
          <ellipse class="cls-14" cx="38.12" cy="140.25" rx=".03" ry=".16"/>
          <line class="cls-39" x1="41.27" y1="125.52" x2="41.72" y2="123.46"/>
          <line class="cls-39" x1="41" y1="127.23" x2="41.27" y2="126"/>
          <line class="cls-39" x1="41.12" y1="129.45" x2="41.39" y2="127.53"/>
          <line class="cls-39" x1="41.24" y1="131.55" x2="41.54" y2="129.66"/>
          <line class="cls-39" x1="41.18" y1="133.89" x2="41.54" y2="131.97"/>
          <line class="cls-39" x1="41.33" y1="136.4" x2="41.69" y2="134.13"/>
          <line class="cls-39" x1="41.54" y1="138.59" x2="41.9" y2="136.46"/>
          <line class="cls-39" x1="41.66" y1="140.96" x2="41.99" y2="138.86"/>
        </g>
        <ellipse class="cls-24" cx="198.17" cy="87.07" rx="2.9" ry="2.97"/>
        <ellipse class="cls-24" cx="213.32" cy="88.64" rx="2.92" ry="3.07"/>
        <path class="cls-24" d="m233.05,89.43c0,1.8-1.46,3.26-3.26,3.26s-3.16-1.29-3.16-3.09,1.36-3.44,3.16-3.44,3.26,1.46,3.26,3.26Z"/>
        <ellipse class="cls-24" cx="247.78" cy="89.14" rx="3.66" ry="3.56"/>
        <ellipse class="cls-24" cx="198.93" cy="112.53" rx="3.16" ry="3.12"/>
        <circle class="cls-24" cx="218.36" cy="106.79" r="3.41"/>
        <ellipse class="cls-24" cx="239.92" cy="100.76" rx="3.51" ry="3.31"/>
        <ellipse class="cls-24" cx="263.65" cy="94.23" rx="4.2" ry="3.91"/>
        <polygon class="cls-23" points="176.71 94.75 196.36 97.44 196.65 101.89 176.79 110.03 176.71 94.75"/>
        <polygon class="cls-24" points="199.12 115.15 200.98 113.68 201.05 110.98 198.42 109.74 196.3 110.98 196.3 113.68 199.12 115.15"/>
        <polygon class="cls-24" points="218.45 109.44 220.64 108.06 220.57 105.13 217.75 104.21 215.63 105.45 215.89 108.42 218.45 109.44"/>
        <polygon class="cls-24" points="241.24 103.16 242.81 100.99 241.62 98.2 238.56 98.39 237 100.4 238.38 103.16 241.24 103.16"/>
        <polygon class="cls-24" points="265.73 96 266.47 92.85 263.76 90.96 260.76 91.9 259.96 95.05 262.67 96.79 265.73 96"/>
        <polygon class="cls-24" points="198.36 89.41 200.05 88.08 200.11 85.62 197.72 84.49 195.79 85.62 195.79 88.08 198.36 89.41"/>
        <polygon class="cls-24" points="212.02 91.2 214.59 90.84 215.73 88.15 213.96 86.01 211.1 86.4 210.11 89.21 212.02 91.2"/>
        <polygon class="cls-24" points="229.6 92.13 231.94 91 232.2 88.09 229.87 86.6 227.26 87.84 227.18 90.82 229.6 92.13"/>
        <polygon class="cls-24" points="248.38 91.71 250.27 89.93 249.65 87.07 246.97 86.35 244.86 88.32 245.67 91.19 248.38 91.71"/>
        <path class="cls-23" d="m198.14,113.47c-.64-.04-1.95-.47-2.38-.94-.31-.35-.4-1.45-.17-1.85.2-.33,1.02-.66,1.41-.63.64.03,1.93.44,2.4.88.21.2.45.8.46,1.09s-.2.93-.42,1.13c-.25.22-.96.35-1.29.33Z"/>
        <path class="cls-23" d="m217.28,107.72c-.61-.19-1.79-.9-2.1-1.46-.22-.41-.06-1.5.26-1.84.27-.28,1.15-.4,1.52-.29.61.18,1.78.87,2.13,1.41.16.25.26.88.2,1.17s-.41.86-.67,1c-.29.16-1.02.12-1.34.03Z"/>
        <path class="cls-23" d="m238.64,101.39c-.46-.45-1.18-1.63-1.19-2.27,0-.46.64-1.36,1.08-1.51.37-.13,1.2.17,1.48.44.46.44,1.18,1.6,1.24,2.23.03.29-.18.9-.37,1.13s-.76.57-1.06.58c-.33,0-.96-.36-1.2-.59Z"/>
        <path class="cls-23" d="m261.82,94.63c-.53-.45-1.39-1.67-1.45-2.36-.04-.5.6-1.54,1.06-1.74.39-.17,1.32.08,1.64.35.53.44,1.39,1.63,1.5,2.32.05.32-.13.99-.31,1.26s-.78.69-1.1.72c-.36.04-1.06-.31-1.34-.54Z"/>
        <path class="cls-23" d="m246.12,89.77c-.37-.58-.83-2-.69-2.69.11-.49,1.03-1.29,1.53-1.35.42-.05,1.23.47,1.46.82.38.58.85,1.97.75,2.66-.04.32-.41.91-.67,1.11s-.95.43-1.27.36c-.36-.07-.92-.61-1.12-.91Z"/>
        <path class="cls-23" d="m227.74,89.84c-.41-.56-.95-1.95-.85-2.64.08-.5.95-1.35,1.45-1.44.42-.07,1.26.39,1.51.73.41.55.97,1.91.91,2.61-.02.32-.36.93-.6,1.15s-.92.48-1.24.44c-.36-.05-.96-.55-1.17-.84Z"/>
        <path class="cls-23" d="m211.47,89.66c-.48-.5-1.22-1.8-1.21-2.5,0-.51.75-1.47,1.23-1.62.4-.13,1.3.21,1.59.51.48.49,1.22,1.76,1.26,2.46.02.32-.23.97-.44,1.22s-.84.61-1.17.61c-.36,0-1.03-.41-1.28-.67Z"/>
        <path class="cls-23" d="m196.85,87.98c-.58-.38-1.58-1.48-1.73-2.17-.11-.5.41-1.6.84-1.86.36-.21,1.31-.08,1.67.14.58.37,1.58,1.45,1.78,2.11.09.31,0,1-.16,1.29s-.69.78-1,.85c-.35.08-1.09-.17-1.39-.37Z"/>
        <ellipse class="cls-25" cx="196.75" cy="111.18" rx=".47" ry=".51"/>
        <ellipse class="cls-25" cx="216.78" cy="105.38" rx=".62" ry=".55"/>
        <circle class="cls-25" cx="196.46" cy="85.42" r=".51"/>
        <ellipse class="cls-25" cx="211.68" cy="87.13" rx=".4" ry=".33"/>
        <circle class="cls-25" cx="228.21" cy="87.75" r=".44"/>
        <ellipse class="cls-25" cx="238.86" cy="99.25" rx=".58" ry=".55"/>
        <ellipse class="cls-25" cx="262.36" cy="92.5" rx=".58" ry=".51"/>
        <ellipse class="cls-25" cx="246.41" cy="87.39" rx=".55" ry=".44"/>
        <path class="cls-5" d="m195.12,86.34s.39.93.65,1.12.94.29,1.26.23c.37-.06,1.11-.42,1.3-.74.23-.39.05-1.81.05-1.81"/>
        <path class="cls-4" d="m198.23,110.54c.14.04.34.3.4.43.09.19.15.63.09.83-.07.26-.43.73-.68.86-.22.11-.74.09-.98.06-.12-.01-.4-.13-.4-.25"/>
        <path class="cls-4" d="m218.11,104.92s.31.35.34.49c.05.23-.07.72-.18.92-.1.17-.41.44-.58.52-.24.11-.78.2-1.04.15-.19-.03-.68-.34-.68-.34"/>
        <path class="cls-4" d="m237.95,100.49s.34.23.46.28c.2.08.64.18.86.15.28-.03.83-.25,1.01-.46.15-.17.23-.64.25-.86.01-.27-.18-1.08-.18-1.08"/>
        <path class="cls-5" d="m260.96,93.55s.3.53.46.63.6.14.8.13c.26-.02.79-.15,1.01-.29.14-.1.33-.4.42-.55.12-.19.39-.58.42-.8.03-.18-.13-.71-.13-.71"/>
        <path class="cls-5" d="m245.13,87.79s.14.89.34,1.09c.18.18.71.31.97.34s.77-.08,1.01-.17c.33-.11,1.22-.67,1.22-.67"/>
        <path class="cls-5" d="m210.13,87.7s.27,1.18.53,1.44c.2.21.8.4,1.09.42.44.03,1.39-.12,1.72-.42s.63-1.17.59-1.6-.63-1.2-.97-1.5c-.14-.12-.29-.29-.29-.29"/>
        <path class="cls-5" d="m211.34,89.43c.3.21,1.39-.19,1.72-.35.24-.12.57-1.03.65-1.29.08-.3-.1-.69-.2-.98s-.71-.94-.71-.94"/>
        <polyline class="cls-5" points="226.77 88.82 227.4 89.78 228.54 89.83 229.59 89.45 230.25 88.8 230.34 88.07"/>
        <polyline class="cls-5" points="226.9 89.61 227.66 90.13 228.26 90.13 229.51 89.7"/>
      </g>
      <g id="Strings">
        <path id="Lowest1" class="cls-11" d="m40.49,124.33l132.23-31.87s23.94-4.49,24.84-4.66c.46-.09,1.14-.98,1.19-1.44.05-.53-.5-2.06-1.02-1.86"/>
        <polyline id="String2" class="cls-5" points="40.21 126.66 171.74 95.74 211.47 89.66"/>
        <path id="String3" class="cls-5" d="m41.04,130.58l128.65-28.65,76.43-12.16h.44s.85-.11,1.09-.25c.33-.19.9-.77,1.01-1.13.09-.3-.04-.97-.17-1.26-.06-.14-.38-.46-.38-.46"/>
        <polyline id="String4" class="cls-5" points="41.04 132.7 168.1 105.04 260.58 91.44"/>
        <polyline id="String5" class="cls-4" points="41.42 134.91 167.57 108.01 237.32 98.66"/>
        <polyline id="String6" class="cls-4" points="41.5 137.34 166.58 110.82 214.83 105.04"/>
        <polyline id="String7" class="cls-4" points="41.73 139.62 165.82 113.55 195.6 110.67"/>
        <path id="Highest8" class="cls-9" d="m226.68,88.31s.48.87.75,1.05c.15.1.54.18.72.18.42-.02,1.3-.23,1.6-.53.2-.2.35-.79.37-1.07.03-.34-.57-1.22-.25-1.34.23-.09.52.84.52.84l.28,1.21-1.12,1.42-1.36.37-.18-.03-57.06,8.47-130.29,29.46"/>
      </g>
      <g id="fretHand">
        <polygon id="handPath" class="cls-19" points="161.43 123.21 158.1 127.54 154.88 129.46 149.09 128.71 145.65 130.88 140.34 130.11 135.92 131.82 131.42 130.98 125.02 125.54 154.05 119.76 161.02 118.43 161.43 123.21"/>
        <g id="pinkieFinger">
          <polyline id="secondSegmentPointer" class="cls-48" points="121.32 111.98 123.09 102.39 127.16 101.31 130.12 103.27 128.27 113.11"/>
          <g id="firstSegmentPointer">
            <polygon class="cls-56" points="130.97 127.68 128.09 111.05 121.22 112.03 128.06 128.01 130.97 127.68"/>
            <path class="cls-19" d="m128.2,128.16l-.09.02-5.02-3.97-1.82-12.22"/>
            <path class="cls-26" d="m130.1,122.66c-.23-1.5-1.9-11.87-1.9-11.87"/>
          </g>
        </g>
        <g id="ringFinger">
          <polyline id="secondSegmentPointer-2" data-name="secondSegmentPointer" class="cls-48" points="127.05 110.2 128.51 99.87 132.81 98.54 136.06 100.5 134.53 111.09"/>
          <g id="firstSegmentPointer-2" data-name="firstSegmentPointer">
            <polygon class="cls-56" points="138.28 126.62 134.2 109.04 126.92 110.5 135.19 127.14 138.28 126.62"/>
            <path class="cls-19" d="m135.34,127.29l-.09.02-5.6-3.94-2.68-12.93"/>
            <path class="cls-26" d="m137.05,121.31c-.33-1.59-2.75-12.56-2.75-12.56"/>
          </g>
        </g>
        <g id="middleFinger">
          <polyline id="secondSegmentPointer-3" data-name="secondSegmentPointer" class="cls-48" points="133.97 109.35 135.81 98.48 140.4 97.19 143.77 99.36 141.85 110.5"/>
          <g id="firstSegmentPointer-3" data-name="firstSegmentPointer">
            <polygon class="cls-56" points="146.27 126.4 141.72 107.88 134.05 109.52 143.01 127 146.27 126.4"/>
            <path class="cls-19" d="m143.18,127.15l-.1.03-5.97-4.09-3.01-13.63"/>
            <path class="cls-19" d="m144.9,120.81c-.37-1.68-3.08-13.24-3.08-13.24"/>
          </g>
        </g>
        <g id="pointerFinger">
          <polyline id="secondSegmentPointer-4" data-name="secondSegmentPointer" class="cls-48" points="140.74 108 142.7 97.09 147.32 95.84 150.7 98.05 148.65 109.24"/>
          <g id="firstSegmentPointer-4" data-name="firstSegmentPointer">
            <polygon class="cls-56" points="152.75 125.54 148.53 106.83 140.79 108.33 149.46 126.08 152.75 125.54"/>
            <path class="cls-19" d="m149.63,126.24l-.1.03-5.92-4.22-2.76-13.76"/>
            <path class="cls-19" d="m151.47,119.89c-.34-1.69-2.84-13.37-2.84-13.37"/>
          </g>
        </g>
      </g>
    </g>
    <g id="mobileLeg">
      <polyline class="cls-21" points="62.19 178 51.27 178.96 48.71 192.81 72.44 290.15 56.66 288.61 18.76 171.07 20.3 158.36 30.31 152.95 56.33 157.44 58.13 158.7 60.02 160.56 62.09 162.05"/>
      <line class="cls-53" x1="51.27" y1="178.96" x2="44.72" y2="169.04"/>
    </g>
    <g id="mobileFoot">
      <g class="cls-68">
        <polygon class="cls-19" points="75.83 293.22 71.45 299.26 40.21 303.26 35.26 302.13 33.14 296.61 29.18 270.75 34.55 259.01 50.58 269.74 67.2 286.86 75.83 293.22"/>
        <polygon class="cls-19" points="35.26 302.13 32.75 302.41 26.89 301.05 20.17 276.54 18.76 264.24 24.18 252.95 34.68 258.38 34.55 259.01 29.18 270.75 33.14 296.61 35.26 302.13"/>
        <polygon class="cls-19" points="26.71 300.4 21.75 299.26 12.96 263.39 19.17 252.02 24.18 252.95 18.76 264.24 20.17 276.54 26.71 300.4"/>
        <polygon class="cls-19" points="21.75 299.26 19.03 299.26 13.31 284.12 9.74 264.96 13.81 256.6 16.67 256.6 12.96 263.39 21.75 299.26"/>
      </g>
    </g>
    <g id="strumHand">
      <polygon id="Pick" class="cls-29" points="45.03 122.84 47.43 124.93 51.8 124 54.61 121.61 55.3 118.04 51.21 117.86 47.5 118.53 44.25 120.67 45.03 122.84"/>
      <polyline id="Hand" class="cls-30" points="20.08 119.94 33.5 116.27 43.11 113.89 48.97 114.69 49.8 119.29 46.7 121.44 39.2 121.6 35.36 126.61 36.8 129.7 42.14 130.48 46.72 124.31 47.43 124.93 50.28 124.28 51.8 124 53.9 122.35 54.01 126.45 50.39 132.68 44.41 137.41 33.24 139.66 22.66 134.33 20.08 119.94"/>
    </g>
  </g>
</svg>